<?xml version="1.0" encoding="UTF-8"?>
<svg width="400px" height="300px" viewBox="0 0 400 300" version="1.1" xmlns="http://www.w3.org/2000/svg" xmlns:xlink="http://www.w3.org/1999/xlink">
    <!-- Generator: Sketch 64 (93537) - https://sketch.com -->
    <title>Mask</title>
    <desc>Created with Sketch.</desc>
    <defs>
        <path d="M391.780227,262.383673 L383.324538,291.244898 C382.772001,293.14898 382.523669,293.347959 380.583579,293.347959 L374.266646,293.347959 C372.335868,293.347959 372.084433,293.14898 371.531895,291.244898 L364.795903,268.273469 L358.000931,268.273469 L358.000931,291.244898 C358.000931,293.14898 357.802266,293.347959 355.871488,293.347959 L350.305758,293.347959 C348.365668,293.347959 348.173211,293.14898 348.173211,291.244898 L348.173211,268.273469 L342.849604,268.273469 C340.918827,268.273469 340.723266,268.086735 340.723266,266.179592 L340.723266,262.383673 C340.723266,260.479592 340.918827,260.292857 342.849604,260.292857 L348.173211,260.292857 L348.173211,253.068367 C348.173211,251.161224 348.365668,250.97449 350.305758,250.97449 L355.871488,250.97449 C357.802266,250.97449 358.000931,251.161224 358.000931,253.068367 L358.000931,260.292857 L370.3368,260.292857 C372.273786,260.292857 372.5097,260.479592 372.969114,262.383673 L377.426665,280.671429 L381.878007,262.383673 C382.340525,260.479592 382.585752,260.292857 384.519634,260.292857 L390.2623,260.292857 C392.205494,260.292857 392.338973,260.479592 391.780227,262.383673 L391.780227,262.383673 Z M388.337731,244.242857 L28.6171038,244.242857 C18.0133478,244.242857 16.9486264,245.289796 16.9486264,255.737755 L16.9486264,288.495918 C16.9486264,298.95 18.0133478,300 28.620208,300 L388.337731,300 C398.941487,300 400,298.95 400,288.495918 L400,255.737755 C400,245.292857 398.941487,244.242857 388.337731,244.242857 L388.337731,244.242857 Z M388.337731,0 L293.245383,0 C282.635418,0 281.573801,1.04387755 281.573801,11.4979592 L281.573801,220.946939 C281.573801,231.394898 282.635418,232.441837 293.245383,232.441837 L388.337731,232.441837 C398.941487,232.441837 400,231.394898 400,220.946939 L400,188.185714 C400,177.72551 398.941487,176.684694 388.337731,176.684694 L345.20565,176.684694 L345.20565,141.134694 L382.68198,141.134694 C393.282632,141.134694 394.34425,140.090816 394.34425,129.636735 L394.34425,100.019388 C394.34425,89.5622449 393.282632,88.5153061 382.68198,88.5153061 L345.20565,88.5153061 L345.20565,54.7102041 L388.337731,54.7102041 C398.941487,54.7102041 400,53.6632653 400,43.2122449 L400,11.4979592 C400,1.04387755 398.941487,0 388.337731,0 L388.337731,0 Z M56.5637126,232.441837 L100.437684,232.441837 C110.687568,232.441837 111.04144,232.095918 112.810802,221.987755 L135.076828,92.9938776 L157.349061,221.987755 C159.118423,232.095918 159.469191,232.441837 169.719075,232.441837 L213.589943,232.441837 C222.784417,232.441837 224.550675,231.394898 225.612292,225.471429 L269.095142,12.8938776 C269.799783,9.40408163 270.150551,7.66530612 270.150551,6.61836735 C270.150551,1.74183673 267.328884,0 258.488282,0 L216.728232,0 C206.484557,0 206.130684,0.342857143 204.364427,10.4510204 L186.686326,144.153061 C186.686326,144.153061 175.573491,76.4602041 172.065808,55.7540816 C168.558125,35.0693878 164.414093,10.105102 164.414093,10.105102 C162.647835,0.342857143 162.293962,0 152.047183,0 L118.11268,0 C107.862797,0 107.508924,0.342857143 105.739562,10.105102 C105.739562,10.105102 101.601738,35.0693878 98.0940556,55.7540816 C94.5863728,76.4602041 83.470433,144.153061 83.470433,144.153061 L65.7892286,10.4510204 C64.0229707,0.342857143 63.6690982,0 53.4223188,0 L11.6684774,0 C2.83097936,0 0,1.74183673 0,6.61836735 C0,7.66530612 0.356976564,9.40408163 1.0647214,12.8938776 L44.5444669,225.471429 C45.60298,231.394898 47.3754462,232.441837 56.5637126,232.441837 L56.5637126,232.441837 Z" id="path-1"></path>
    </defs>
    <g id="Symbols" stroke="none" stroke-width="1" fill="none" fill-rule="evenodd">
        <g id="we-tv/logo/network/primary">
            <g id="swatch">
                <mask id="mask-2" fill="white">
                    <use xlink:href="#path-1"></use>
                </mask>
                <use id="Mask" fill="#64B1EA" xlink:href="#path-1"></use>
            </g>
        </g>
    </g>
</svg>