<?xml version="1.0" encoding="UTF-8"?>
<svg width="200px" height="40px" viewBox="0 0 200 40" version="1.1" xmlns="http://www.w3.org/2000/svg" xmlns:xlink="http://www.w3.org/1999/xlink">
    <!-- Generator: Sketch 63.1 (92452) - https://sketch.com -->
    <title>network logo</title>
    <desc>Created with Sketch.</desc>
    <g id="Symbols" stroke="none" stroke-width="1" fill="none" fill-rule="evenodd">
        <g id="__r/footer/full/lg" transform="translate(0.000000, -4.000000)">
            <g transform="translate(0.000000, 4.000000)" id="sundance-tv/logo/network/primary">
                <g transform="translate(-0.000000, 0.000000)">
                    <g id="sundance_tv_logo">
                        <g id="tm" transform="translate(196.312364, 36.200512)" fill="#808080" fill-rule="nonzero">
                            <polygon id="Shape" points="0.607375271 0.368508204 0.0433839479 0.368508204 0.0433839479 0.108384766 1.47505423 0.108384766 1.47505423 0.368508204 0.911062907 0.368508204 0.911062907 2.94806563 0.607375271 2.94806563"></polygon>
                            <path d="M1.80043384,0.108384766 L2.1691974,0.108384766 L2.71149675,2.49284962 L2.73318872,2.49284962 L3.2537961,0.108384766 L3.62255965,0.108384766 L3.62255965,2.94806563 L3.34056399,2.94806563 L3.34056399,0.585277736 L3.34056399,0.585277736 C3.31887202,0.780370315 3.23210412,1.14887852 3.14533623,1.45235586 L2.79826464,2.94806563 L2.53796095,2.94806563 L2.19088937,1.40900196 C2.12581345,1.12720157 2.03904555,0.758693361 2.01735358,0.585277736 L2.01735358,0.585277736 L2.01735358,2.94806563 L1.75704989,2.94806563 L1.75704989,0.108384766 L1.80043384,0.108384766 Z" id="Shape"></path>
                        </g>
                        <g id="sundance-tv" fill-rule="nonzero">
                            <path d="M0,27.1395454 L6.26898048,26.6626524 C6.78958785,32.1469216 7.37527115,33.7076622 9.30585683,33.7076622 C10.824295,33.7076622 11.64859,32.6021376 11.64859,30.2610266 C11.64859,26.9661298 9.30585683,24.7767575 6.68112798,21.8503688 C3.81778742,18.6421797 0.629067245,15.2388981 0.629067245,9.49450549 C0.629067245,3.66340509 3.55748373,0 8.98047722,0 C15.5097614,0 17.4403471,4.0752672 17.9175705,11.4237543 L11.6052061,11.9873551 C11.2798265,6.481409 10.4989154,5.85277736 9.08893709,5.85277736 C7.8308026,5.85277736 7.31019523,7.04500978 7.31019523,8.82251995 C7.31019523,12.6376637 9.56616052,14.827036 12.0607375,17.5366551 C15.032538,20.7231672 18.2863341,23.7579407 18.2863341,29.9141954 C18.2863341,36.0704501 15.0542299,39.365347 9.24078091,39.365347 C1.82212581,39.365347 0.520607375,34.249586 0,27.1395454 Z" id="Shape" fill="#FFFFFF"></path>
                            <path d="M20.2603037,28.1800391 L20.2603037,0.368508204 L27.0065076,0.368508204 L27.0065076,27.768177 C27.0065076,32.3203372 27.3752711,33.7293392 29.154013,33.7293392 C30.867679,33.7293392 31.3015184,32.428722 31.3015184,27.8765618 L31.3015184,0.368508204 L37.7223427,0.368508204 L37.7223427,28.0283005 C37.7223427,35.3334337 35.5314534,39.365347 28.9370933,39.365347 C22.3644252,39.365347 20.2603037,35.3984645 20.2603037,28.1800391 Z" id="Shape" fill="#FFFFFF"></path>
                            <path d="M40.9544469,0.368508204 L47.2668113,0.368508204 L50.2386117,12.1607707 C51.0195228,15.4556676 51.9088937,19.2708114 52.537961,22.8691856 L52.6464208,22.8691856 C52.3861171,19.1190727 52.3427332,14.9354207 52.3427332,12.2691555 L52.3427332,0.368508204 L58.1344902,0.368508204 L58.1344902,38.9968388 L52.6030369,38.9968388 L49.197397,26.7710372 C48.2646421,23.3677555 47.1583514,20.0295047 46.5292842,16.2793918 L46.4208243,16.2793918 C46.681128,18.7939184 46.7245119,24.7334036 46.7245119,26.7710372 L46.7245119,38.9968388 L40.9327549,38.9968388 L40.9327549,0.368508204 L40.9544469,0.368508204 Z" id="Shape" fill="#FFFFFF"></path>
                            <path d="M61.4750542,0.368508204 L68.1127983,0.368508204 C75.7483731,0.368508204 79.8698482,3.22986602 79.8698482,19.6826735 C79.8698482,36.0270962 75.5965293,38.9968388 68.1127983,38.9968388 L61.4750542,38.9968388 L61.4750542,0.368508204 Z M69.2190889,33.2958001 C72.5596529,33.2958001 72.9718004,30.0659341 72.9718004,19.6609965 C72.9718004,9.12599729 72.5596529,6.24296252 69.154013,6.24296252 L68.2212581,6.24296252 L68.2212581,33.2741231 L69.2190889,33.2741231 L69.2190889,33.2958001 Z" id="Shape" fill="#FFFFFF"></path>
                            <path d="M86.2906725,0.216769532 L93.29718,0.216769532 L99.6095445,38.9968388 L92.7765727,38.9968388 L91.670282,30.3260575 L87.3969631,30.3260575 L86.2906725,38.9968388 L79.9132321,38.9968388 L86.2906725,0.216769532 Z M91.3015184,25.6871895 L90.0433839,15.3039289 C89.8264642,13.8515731 89.7396963,12.5292789 89.5661605,11.0335692 L89.5227766,11.0335692 C89.3709328,12.5943098 89.2624729,13.8515731 89.0455531,15.3039289 L87.7440347,25.6871895 L91.3015184,25.6871895 Z" id="Shape" fill="#FFFFFF"></path>
                            <path d="M101.279826,0.368508204 L107.592191,0.368508204 L110.563991,12.1607707 C111.344902,15.4556676 112.234273,19.2708114 112.863341,22.8691856 L112.9718,22.8691856 C112.711497,19.1190727 112.668113,14.9354207 112.668113,12.2691555 L112.668113,0.368508204 L118.45987,0.368508204 L118.45987,38.9968388 L112.928416,38.9968388 L109.544469,26.7710372 C108.611714,23.3677555 107.505423,20.0295047 106.876356,16.2793918 L106.767896,16.2793918 C107.0282,18.7939184 107.071584,24.7334036 107.071584,26.7710372 L107.071584,38.9968388 L101.279826,38.9968388 L101.279826,0.368508204 Z" id="Shape" fill="#FFFFFF"></path>
                            <path d="M121.019523,19.6826735 C121.019523,5.18079181 124.056399,0 130.412148,0 C136.572668,0 139.023861,3.40328165 139.132321,14.827036 L132.754881,15.0871594 C132.646421,8.1505344 132.08243,6.22128556 130.412148,6.22128556 C128.156182,6.22128556 127.895879,10.0364293 127.895879,19.6826735 C127.895879,29.610718 128.199566,33.317477 130.455531,33.317477 C132.277657,33.317477 132.798265,31.8000903 133.015184,24.6033419 L139.392625,24.8634653 C139.023861,32.7972302 137.765727,39.365347 130.455531,39.365347 C124.013015,39.365347 121.019523,34.1845552 121.019523,19.6826735 Z" id="Shape" fill="#FFFFFF"></path>
                            <polygon id="Shape" fill="#FFFFFF" points="141.496746 0.368508204 155.336226 0.368508204 155.336226 6.26463947 148.221258 6.26463947 148.221258 15.7157911 153.18872 15.7157911 153.18872 21.2434141 148.221258 21.2434141 148.221258 33.2958001 155.596529 33.2958001 155.596529 38.9751618 141.496746 38.9751618"></polygon>
                            <polygon id="Shape" fill="#808080" points="165.37961 6.26463947 160.303688 6.26463947 160.303688 0.368508204 177.180043 0.368508204 177.180043 6.26463947 172.169197 6.26463947 172.169197 38.9968388 165.37961 38.9968388"></polygon>
                            <path d="M177.91757,0.368508204 L184.707158,0.368508204 L186.854664,19.465904 C187.158351,22.4356465 187.418655,25.947313 187.700651,29.2205329 L187.809111,29.2205329 C188.02603,25.925636 188.329718,22.4356465 188.655098,19.465904 L190.737527,0.368508204 L197.114967,0.368508204 L190.997831,39.1485774 L183.991323,39.1485774 L177.91757,0.368508204 Z" id="Shape" fill="#808080"></path>
                        </g>
                    </g>
                </g>
            </g>
        </g>
    </g>
</svg>