<?xml version="1.0" encoding="UTF-8"?>
<svg width="24px" height="24px" viewBox="0 0 24 24" version="1.1" xmlns="http://www.w3.org/2000/svg" xmlns:xlink="http://www.w3.org/1999/xlink">
    <!-- Generator: Sketch 63.1 (92452) - https://sketch.com -->
    <title>icon/10-second-forward</title>
    <desc>Created with Sketch.</desc>
    <g id="icon/10-second-forward" stroke="none" stroke-width="1" fill="none" fill-rule="evenodd">
        <path d="M10.664,9.368 L9.768,9.368 C9.28,9.72 8.688,10 8.096,10.16 L8,11.168 C8.496,11.04 8.984,10.864 9.448,10.64 L9.448,15 L10.664,15 L10.664,9.368 Z M14.036,15.128 C15.564,15.128 16.268,14.016 16.268,12.184 C16.268,10.336 15.564,9.24 14.036,9.24 C12.508,9.24 11.804,10.336 11.804,12.184 C11.804,14.016 12.508,15.128 14.036,15.128 Z M14.036,14.096 C13.316,14.096 13.0770637,13.5144155 13.053907,12.3784552 L13.052,12.184 C13.052,10.936 13.276,10.272 14.036,10.272 C14.788,10.272 15.02,10.936 15.02,12.184 C15.02,13.448 14.788,14.096 14.036,14.096 Z" id="Shape" fill="#FFFFFF"></path>
        <path d="M12,6.6 L7.55555556,3.3 L12,0 L12,2.2 L12,2.2 C17.5228475,2.2 22,6.63238098 22,12.1 C22,17.567619 17.5228475,22 12,22 C6.4771525,22 2,17.567619 2,12.1 L3.111,12.1 L3.11490085,12.3594653 C3.25353934,17.09956 7.17846647,20.9 12,20.9 C16.9091978,20.9 20.8888889,16.9601058 20.8888889,12.1 C20.8888889,7.2398942 16.9091978,3.3 12,3.3 L12,6.6 Z" id="Mask" fill="#FFFFFF" fill-rule="nonzero" transform="translate(12.000000, 11.000000) scale(-1, 1) translate(-12.000000, -11.000000) "></path>
    </g>
</svg>