<?xml version="1.0" encoding="UTF-8"?>
<svg width="20px" height="16px" viewBox="0 0 20 16" version="1.1" xmlns="http://www.w3.org/2000/svg" xmlns:xlink="http://www.w3.org/1999/xlink">
    <!-- Generator: Sketch 63.1 (92452) - https://sketch.com -->
    <title>icon right</title>
    <desc>Created with Sketch.</desc>
    <defs>
        <path d="M0.0623475842,12.4582825 L0.0623475842,14.9378157 L2.54839201,14.9378157 C2.54786808,13.5739418 1.42927907,12.4582825 0.0623475842,12.4582825 L0.0623475842,12.4582825 Z M0.0623475842,9.17348894 L0.0623475842,10.8472392 C2.36187319,10.8472392 4.22601357,12.7064971 4.22601357,15 L5.90415905,15 C5.84181146,11.7768681 3.23159579,9.17348894 0.0623475842,9.17348894 L0.0623475842,9.17348894 Z M0.0623475842,5.82651106 L0.0623475842,7.50026128 C4.22601357,7.50026128 7.5817806,10.8472392 7.5817806,15 L9.19757849,15 C9.19757849,9.91708762 5.09573617,5.82651106 0.0623475842,5.82651106 L0.0623475842,5.82651106 Z M16.7170115,0 L1.67814548,0 C0.745551364,0 0,0.743598676 0,1.67375022 L0,4.1532834 L1.67814548,4.1532834 L1.67814548,1.67375022 L16.6551879,1.67375022 L16.6551879,13.2645881 L10.8133764,13.2645881 L10.8133764,14.9383383 L16.6551879,14.9383383 C17.587258,14.9383383 18.3333333,14.1947396 18.3333333,13.2645881 L18.3333333,1.67375022 C18.3328094,0.743598676 17.587258,0 16.7170115,0 Z" id="path-1"></path>
    </defs>
    <g id="Symbols" stroke="none" stroke-width="1" fill="none" fill-rule="evenodd">
        <g id="element/header/account/mvpd+icon" transform="translate(-160.000000, -4.000000)">
            <g id="icon/chromecast" transform="translate(160.000000, 2.000000)">
                <g id="icon" transform="translate(0.833333, 2.500000)">
                    <mask id="mask-2" fill="white">
                        <use xlink:href="#path-1"></use>
                    </mask>
                    <use id="Mask" fill="#FFFFFF" fill-rule="nonzero" xlink:href="#path-1"></use>
                    <g id="swatch" mask="url(#mask-2)" fill="#FFFFFF">
                        <g transform="translate(-0.833333, -2.500000)" id="Rectangle">
                            <rect x="0" y="0" width="20" height="20"></rect>
                        </g>
                    </g>
                </g>
            </g>
        </g>
    </g>
</svg>