<?xml version="1.0" encoding="UTF-8"?>
<svg width="24px" height="24px" viewBox="0 0 24 24" version="1.1" xmlns="http://www.w3.org/2000/svg" xmlns:xlink="http://www.w3.org/1999/xlink">
    <!-- Generator: Sketch 63.1 (92452) - https://sketch.com -->
    <title>global/icon/download--complete</title>
    <desc>Created with Sketch.</desc>
    <g id="Symbols" stroke="none" stroke-width="1" fill="none" fill-rule="evenodd">
        <g id="card/info/download-episode" transform="translate(-264.000000, -20.000000)" fill="#FFFFFF">
            <g id="icon/download" transform="translate(264.000000, 20.000000)">
                <g id="icon">
                    <path d="M12,0 C18.627417,0 24,5.372583 24,12 C24,18.627417 18.627417,24 12,24 C5.372583,24 0,18.627417 0,12 C0,5.372583 5.372583,0 12,0 Z M12,1 C5.92486775,1 1,5.92486775 1,12 C1,18.0751322 5.92486775,23 12,23 C18.0751322,23 23,18.0751322 23,12 C23,5.92486775 18.0751322,1 12,1 Z" id="Oval"></path>
                    <path d="M13,6 L13,13.943 L16.633965,10 L18,11.4875641 L12,18 L6,11.4875641 L7.36603502,10 L11,13.944 L11,6 L13,6 Z" id="arrow"></path>
                </g>
            </g>
        </g>
    </g>
</svg>