<?xml version="1.0" encoding="UTF-8"?>
<svg width="24px" height="25px" viewBox="0 0 24 25" version="1.1" xmlns="http://www.w3.org/2000/svg" xmlns:xlink="http://www.w3.org/1999/xlink">
    <!-- Generator: Sketch 63.1 (92452) - https://sketch.com -->
    <title>icon/pause--outline</title>
    <desc>Created with Sketch.</desc>
    <g id="Symbols" stroke="none" stroke-width="1" fill="none" fill-rule="evenodd">
        <g id="chromecast/image" transform="translate(-51.000000, -22.000000)">
            <g id="icon/pause--outline">
                <g transform="translate(51.000000, 22.500000)">
                    <g id="icon">
                        <g>
                            <circle id="fill--back" fill-opacity="0.2" fill="#000000" cx="12" cy="12" r="12"></circle>
                            <path d="M12,-8.8817842e-15 C18.627417,-8.8817842e-15 24,5.372583 24,12 C24,18.627417 18.627417,24 12,24 C5.372583,24 7.63833441e-14,18.627417 7.63833441e-14,12 C7.63833441e-14,5.372583 5.372583,-8.8817842e-15 12,-8.8817842e-15 Z M12,1.33333333 C6.10896267,1.33333333 1.33333333,6.10896267 1.33333333,12 C1.33333333,17.8910373 6.10896267,22.6666667 12,22.6666667 C17.8910373,22.6666667 22.6666667,17.8910373 22.6666667,12 C22.6666667,6.10896267 17.8910373,1.33333333 12,1.33333333 Z M16,7 L16,17 L14,17 L14,7 L16,7 Z M10,7 L10,17 L8,17 L8,7 L10,7 Z" fill="#FFFFFF" fill-rule="nonzero"></path>
                        </g>
                    </g>
                </g>
            </g>
        </g>
    </g>
</svg>