<?xml version="1.0" encoding="UTF-8"?>
<svg width="40px" height="40px" viewBox="0 0 40 40" version="1.1" xmlns="http://www.w3.org/2000/svg" xmlns:xlink="http://www.w3.org/1999/xlink">
    <!-- Generator: Sketch 63.1 (92452) - https://sketch.com -->
    <title>icon</title>
    <desc>Created with Sketch.</desc>
    <g id="Symbols" stroke="none" stroke-width="1" fill="none" fill-rule="evenodd">
        <g id="__e/flag/icon/md">
            <g id="icon/play-outline-rebrand">
                <g id="icon">
                    <circle id="fill--back" fill-opacity="0.6" fill="#000000" cx="20" cy="20" r="20"></circle>
                    <path d="M20,0 C31.0451562,0 40,8.9548432 40,19.9998425 C40,31.0454668 31.0451562,39.999685 20,39.999685 C8.9546875,39.999685 0,31.0454668 0,19.9998425 C0,8.9548432 8.9546875,0 20,0 Z M20,2.66666667 C10.4273958,2.66666667 2.66666667,10.4275919 2.66666667,20 C2.66666667,29.5729498 10.4273958,37.3333333 20,37.3333333 C29.5724688,37.3333333 37.3333333,29.5729498 37.3333333,20 C37.3333333,10.4275919 29.5724688,2.66666667 20,2.66666667 Z" id="ring" fill="#FFFFFF"></path>
                    <polygon fill="#FFFFFF" points="15 12 15 28 28.3333069 20.000203"></polygon>
                </g>
            </g>
        </g>
    </g>
</svg>