<?xml version="1.0" encoding="UTF-8"?>
<svg width="101px" height="34px" viewBox="0 0 101 34" version="1.1" xmlns="http://www.w3.org/2000/svg" xmlns:xlink="http://www.w3.org/1999/xlink">
    <!-- Generator: Sketch 63.1 (92452) - https://sketch.com -->
    <title>__m/nav/element/account/lg/provider</title>
    <desc>Created with Sketch.</desc>
    <g id="Symbols" stroke="none" stroke-width="1" fill="none" fill-rule="evenodd">
        <g id="__m/nav/global/provider-mvpd/lg" transform="translate(-20.000000, -7.000000)" fill="#FFFFFF">
            <g id="__m/nav/element/account/lg/provider" transform="translate(20.000000, 4.000000)">
                <g id="logo/mvpd/xfinity">
                    <path d="M5.50260891,10.8608468 L9.45415676,16.581645 L13.476132,10.8608468 L17.9853887,10.8608468 L11.7166368,19.8517603 L22.851541,36.1238194 L18.6147146,36.1238194 L9.45415676,23.1849271 L5.00747577,29.5576545 L0.333333333,29.5576545 L7.15218028,19.8517603 L0.938152375,10.8608468 L5.50260891,10.8608468 Z M84.7805378,10.7935125 L89.455394,22.6127045 L95.7914802,10.7935125 L100.333333,10.7935125 L86.3256577,36.0098507 L82.1271381,36.0098507 L86.9361871,27.1164888 L80.562032,10.7935125 L84.7805378,10.7935125 Z M75.2853547,4.10103043 L75.2853547,10.8473086 L78.8064865,10.8473086 L79.9514075,13.9199416 L75.2853547,13.9199416 L75.2853547,23.4140778 C75.2853547,24.5195024 75.1801894,27.5747665 79.5697671,26.315163 L79.2259577,29.5593438 C78.8438415,29.657847 77.0955291,29.7882329 76.5161686,29.7882329 C72.6340964,29.8125018 71.4370686,27.8609967 71.3633102,24.1012208 L71.3633102,13.9199416 L68.2718807,13.9199416 L68.2718807,10.8473086 L71.3633102,10.8473086 L71.3633102,6.04777685 L75.2853547,4.10103043 Z M37.0868208,10.8295352 L37.0868208,29.5915358 L33.0446215,29.5915358 L33.0446215,10.8295352 L37.0868208,10.8295352 Z M65.3700817,10.7914663 L65.3700817,29.553467 L61.2131999,29.553467 L61.2131999,10.7914663 L65.3700817,10.7914663 Z M95.9977896,27.136808 L95.9977896,27.4180417 L95.2387917,27.4180417 L95.2387917,29.5211084 L94.9356684,29.5211084 L94.9356684,27.4180417 L94.1802394,27.4180417 L94.1802394,27.136808 L95.9977896,27.136808 Z M97.0571747,27.136808 L97.6536662,28.8249241 L97.7733451,29.1780128 C97.8026106,29.0899786 97.8473415,28.9626858 97.9072999,28.7956587 L98.5104535,27.136808 L98.9584764,27.136808 L98.9584764,29.5211084 L98.63846,29.5211084 L98.63846,27.5267759 L97.9049206,29.5211084 L97.6060801,29.5211084 L96.8765855,27.4927519 L96.8765855,29.5211084 L96.5565691,29.5211084 L96.5565691,27.136808 L97.0571747,27.136808 Z M49.8928528,10.4234118 C53.7093706,10.3902754 56.9461677,12.4098491 57.0153767,17.3696709 L57.0157748,29.5109012 L53.0397201,29.5109012 L53.0397201,19.2382568 C53.1313233,14.9900097 51.5172036,13.8072578 49.5545158,13.7734717 C46.2387179,13.7163684 45.6039197,16.9496044 45.6039197,19.2382568 L45.6039197,29.5109012 L41.4203897,29.5109012 L41.4203897,10.8126659 L45.6039197,10.8126659 L45.6039197,12.4536718 C45.6039197,12.4536718 47.1164431,10.4476807 49.8928528,10.4234118 Z M28.042492,3.68108329 C28.8309933,3.71915216 29.7306081,4.06391329 30.3554133,4.17716815 L30.3554133,7.38328011 C29.9273765,7.24813565 29.310423,7.07801542 28.729397,7.07801542 C27.423873,7.10085674 26.7467231,7.22648398 26.3629414,7.99404741 C25.9784459,8.77303149 26.2230383,10.8318431 26.2230383,10.8318431 L30.3554133,10.8318431 L30.3554133,13.9996483 L26.2230383,13.9996483 L26.2230383,29.4603648 L22.1392012,29.4603648 L22.1392012,13.9996483 L18.0803467,13.9996483 L20.1034688,10.8318431 L22.1392012,10.8318431 C22.1392012,10.8318431 21.9195914,7.13559457 22.6988134,5.85671875 C23.5096802,4.6121049 24.8744489,3.52833199 28.042492,3.68108329 Z" id="xfinity-logo"></path>
                </g>
            </g>
        </g>
    </g>
</svg>