<?xml version="1.0" encoding="UTF-8"?>
<svg width="13px" height="20px" viewBox="0 0 13 20" version="1.1" xmlns="http://www.w3.org/2000/svg" xmlns:xlink="http://www.w3.org/1999/xlink">
    <!-- Generator: Sketch 63.1 (92452) - https://sketch.com -->
    <title>icon</title>
    <desc>Created with Sketch.</desc>
    <defs>
        <path d="M11.7863222,18.7410334 C11.1112462,19.4620061 9.54680851,19.9513678 8.14589666,19.9744681 L7.99209726,19.9744681 C3.28571429,19.9744681 2.26352584,16.5142857 2.26352584,14.4945289 L2.26352584,8.88328267 L0.409422492,8.88328267 C0.306318574,8.88328267 0.207437524,8.8423248 0.134532045,8.76941932 C0.061626565,8.69651384 0.020668693,8.59763279 0.020668693,8.49452888 L0.020668693,5.84468085 C0.0208523959,5.56518435 0.197019945,5.3160905 0.460486322,5.22279635 C2.87659574,4.37173252 3.6343465,2.26322188 3.74650456,0.660486322 C3.7768997,0.232218845 4.00091185,0.0246200608 4.37264438,0.0246200608 L7.13617021,0.0246200608 C7.35087301,0.0246200608 7.52492401,0.198671065 7.52492401,0.41337386 L7.52492401,4.90121581 L10.7598784,4.90121581 C10.9742259,4.90104717 11.1482659,5.07440728 11.1489362,5.2887538 L11.1489362,8.47325228 C11.1488556,8.57635621 11.1078204,8.67520525 11.0348579,8.74805374 C10.9618954,8.82090222 10.8629823,8.86178277 10.7598784,8.86170213 L7.5100304,8.86170213 L7.5100304,14.0510638 C7.5100304,15.3541033 8.36869301,15.7136778 8.89908815,15.7136778 C9.40790274,15.7015198 9.90881459,15.5465046 10.1598784,15.4455927 C10.3462006,15.3708207 10.5100304,15.3212766 10.656535,15.3580547 C10.7930091,15.3920973 10.8826748,15.4887538 10.9431611,15.6650456 L11.8006079,18.1696049 C11.8702128,18.3702128 11.9300912,18.587538 11.7863222,18.7410334 Z" id="path-1"></path>
    </defs>
    <g id="Symbols" stroke="none" stroke-width="1" fill="none" fill-rule="evenodd">
        <g id="__m/social/row" transform="translate(-44.000000, 0.000000)">
            <g id="icon/tumblr" transform="translate(40.000000, 0.000000)">
                <g id="icon" transform="translate(4.166667, 0.000000)">
                    <mask id="mask-2" fill="white">
                        <use xlink:href="#path-1"></use>
                    </mask>
                    <use id="Mask" fill="#FFFFFF" fill-rule="nonzero" xlink:href="#path-1"></use>
                    <rect id="tint" fill="#FFFFFF" mask="url(#mask-2)" x="-4.16666667" y="0" width="20" height="20"></rect>
                </g>
            </g>
        </g>
    </g>
</svg>