<svg width="24" height="24" xmlns="http://www.w3.org/2000/svg" xmlns:xlink="http://www.w3.org/1999/xlink"><defs><path d="M1.352.06L23.98 22.508l-1.353 1.343-9.936-9.857v6.96l-6.389-4.523H0V7.502L6.148 7.5 0 1.404 1.352.06zm19.1 3.011c2.16 2.268 3.493 5.316 3.493 8.672 0 2.64-.825 5.088-2.226 7.117l-1.08-1.072a10.998 10.998 0 001.806-6.045c0-2.962-1.176-5.651-3.08-7.651l1.088-1.02zm-2.176 2.042c1.651 1.735 2.671 4.064 2.671 6.631a9.522 9.522 0 01-1.394 4.967l-1.098-1.09a8.048 8.048 0 00.991-3.877 8.113 8.113 0 00-2.26-5.61l1.09-1.02zm-2.178 2.04a6.638 6.638 0 011.848 4.592c0 .988-.218 1.925-.608 2.77l-1.155-1.146a5.13 5.13 0 00.264-1.624c0-1.383-.55-2.637-1.44-3.571l1.091-1.02zm-3.406-4.177v6.929l-4.076-4.04 4.076-2.889z" id="a"/></defs><g fill="none" fill-rule="evenodd"><path d="M1.352.06L23.98 22.508l-1.353 1.343-9.936-9.857v6.96l-6.389-4.523H0V7.502L6.148 7.5 0 1.404 1.352.06zm19.1 3.011c2.16 2.268 3.493 5.316 3.493 8.672 0 2.64-.825 5.088-2.226 7.117l-1.08-1.072a10.998 10.998 0 001.806-6.045c0-2.962-1.176-5.651-3.08-7.651l1.088-1.02zm-2.176 2.042c1.651 1.735 2.671 4.064 2.671 6.631a9.522 9.522 0 01-1.394 4.967l-1.098-1.09a8.048 8.048 0 00.991-3.877 8.113 8.113 0 00-2.26-5.61l1.09-1.02zm-2.178 2.04a6.638 6.638 0 011.848 4.592c0 .988-.218 1.925-.608 2.77l-1.155-1.146a5.13 5.13 0 00.264-1.624c0-1.383-.55-2.637-1.44-3.571l1.091-1.02zm-3.406-4.177v6.929l-4.076-4.04 4.076-2.889z" fill="#FFF" fill-rule="nonzero"/><mask id="b" fill="#fff"><use xlink:href="#a"/></mask><path fill="#FFF" fill-rule="nonzero" mask="url(#b)" d="M0 0h24v23.81H0z"/></g></svg>