<?xml version="1.0" encoding="UTF-8"?>
<svg width="24px" height="24px" viewBox="0 0 24 24" version="1.1" xmlns="http://www.w3.org/2000/svg" xmlns:xlink="http://www.w3.org/1999/xlink">
    <!-- Generator: Sketch 63.1 (92452) - https://sketch.com -->
    <title>icon/volume</title>
    <desc>Created with Sketch.</desc>
    <defs>
        <path d="M12.69225,3 L12.69225,21.123 L6.303,16.5615 L0,16.5615 L0,7.5615 L6.303,7.5615 L12.69225,3 Z M20.452875,3.096675 C22.611375,5.381925 23.944875,8.453925 23.944875,11.837175 C23.944875,15.221175 22.611375,18.293175 20.452875,20.578425 L20.452875,20.578425 L19.363875,19.549425 C21.268875,17.534175 22.444875,14.823675 22.444875,11.837175 C22.444875,8.851425 21.268875,6.140925 19.363875,4.124925 L19.363875,4.124925 Z M18.27465,5.153325 C19.9254,6.900825 20.9454,9.249825 20.9454,11.837325 C20.9454,14.424825 19.9254,16.773825 18.27465,18.521325 L18.27465,18.521325 L17.18565,17.493075 C18.58215,16.014825 19.4454,14.027325 19.4454,11.837325 C19.4454,9.647325 18.58215,7.659825 17.18565,6.181575 L17.18565,6.181575 Z M16.096425,7.209975 C17.238675,8.418975 17.945175,10.045725 17.945175,11.837475 C17.945175,13.629225 17.238675,15.255975 16.096425,16.464975 L16.096425,16.464975 L15.006675,15.436725 C15.895425,14.495475 16.445175,13.230225 16.445175,11.837475 C16.445175,10.443975 15.895425,9.179475 15.006675,8.238225 L15.006675,8.238225 Z" id="path-1"></path>
    </defs>
    <g id="icon/volume" stroke="none" stroke-width="1" fill="none" fill-rule="evenodd">
        <mask id="mask-2" fill="white">
            <use xlink:href="#path-1"></use>
        </mask>
        <use id="icon" fill="#FFFFFF" xlink:href="#path-1"></use>
    </g>
</svg>