<?xml version="1.0" encoding="UTF-8"?>
<svg width="24px" height="24px" viewBox="0 0 24 24" version="1.1" xmlns="http://www.w3.org/2000/svg" xmlns:xlink="http://www.w3.org/1999/xlink">
    <!-- Generator: Sketch 64 (93537) - https://sketch.com -->
    <title>volume-mute</title>
    <desc>Created with Sketch.</desc>
    <defs>
        <path d="M1.3524,0.0595238095 L23.9796,22.5083333 L22.6272,23.8511905 L12.6912,13.9940476 L12.6912,20.9547619 L6.3024,16.4309524 L0,16.4309524 L0,7.50238095 L6.1476,7.5 L0,1.40357143 L1.3524,0.0595238095 Z M20.4528,3.07142857 C22.6116,5.33928571 23.9448,8.38690476 23.9448,11.7428571 C23.9448,14.3833333 23.1204,16.8309524 21.7188,18.8595238 L20.6388,17.7880952 C21.7788,16.0464286 22.4448,13.972619 22.4448,11.7428571 C22.4448,8.78095238 21.2688,6.09166667 19.3644,4.09166667 L20.4528,3.07142857 Z M18.276,5.11309524 C19.9272,6.84761905 20.9472,9.17738095 20.9472,11.7440476 C20.9472,13.5607143 20.436,15.2595238 19.5528,16.7107143 L18.4548,15.6214286 C19.086,14.4678571 19.446,13.1488095 19.446,11.7440476 C19.446,9.57142857 18.5832,7.60119048 17.1864,6.13333333 L18.276,5.11309524 Z M16.098,7.15357143 C17.2404,8.35357143 17.946,9.96666667 17.946,11.7452381 C17.946,12.7333333 17.7276,13.6702381 17.3376,14.5142857 L16.1832,13.3690476 C16.3536,12.8571429 16.4472,12.3119048 16.4472,11.7452381 C16.4472,10.3619048 15.8964,9.10833333 15.0072,8.17380952 L16.098,7.15357143 Z M12.6924,2.97619048 L12.6912,9.9047619 L8.616,5.86428571 L12.6924,2.97619048 Z" id="path-1"></path>
    </defs>
    <g id="Page-1" stroke="none" stroke-width="1" fill="none" fill-rule="evenodd">
        <g id="volume-mute">
            <g id="prefix__a-link" fill="#FFFFFF" fill-rule="nonzero">
                <path d="M1.3524,0.0595238095 L23.9796,22.5083333 L22.6272,23.8511905 L12.6912,13.9940476 L12.6912,20.9547619 L6.3024,16.4309524 L0,16.4309524 L0,7.50238095 L6.1476,7.5 L0,1.40357143 L1.3524,0.0595238095 Z M20.4528,3.07142857 C22.6116,5.33928571 23.9448,8.38690476 23.9448,11.7428571 C23.9448,14.3833333 23.1204,16.8309524 21.7188,18.8595238 L20.6388,17.7880952 C21.7788,16.0464286 22.4448,13.972619 22.4448,11.7428571 C22.4448,8.78095238 21.2688,6.09166667 19.3644,4.09166667 L20.4528,3.07142857 Z M18.276,5.11309524 C19.9272,6.84761905 20.9472,9.17738095 20.9472,11.7440476 C20.9472,13.5607143 20.436,15.2595238 19.5528,16.7107143 L18.4548,15.6214286 C19.086,14.4678571 19.446,13.1488095 19.446,11.7440476 C19.446,9.57142857 18.5832,7.60119048 17.1864,6.13333333 L18.276,5.11309524 Z M16.098,7.15357143 C17.2404,8.35357143 17.946,9.96666667 17.946,11.7452381 C17.946,12.7333333 17.7276,13.6702381 17.3376,14.5142857 L16.1832,13.3690476 C16.3536,12.8571429 16.4472,12.3119048 16.4472,11.7452381 C16.4472,10.3619048 15.8964,9.10833333 15.0072,8.17380952 L16.098,7.15357143 Z M12.6924,2.97619048 L12.6912,9.9047619 L8.616,5.86428571 L12.6924,2.97619048 Z" id="prefix__a"></path>
            </g>
            <g id="Clipped">
                <mask id="mask-2" fill="white">
                    <use xlink:href="#path-1"></use>
                </mask>
                <g id="prefix__a"></g>
                <polygon id="Path" fill="#FFFFFF" fill-rule="nonzero" mask="url(#mask-2)" points="0 0 24 0 24 23.8095238 0 23.8095238"></polygon>
            </g>
        </g>
    </g>
</svg>