<?xml version="1.0" encoding="UTF-8"?>
<svg width="24px" height="24px" viewBox="0 0 24 24" version="1.1" xmlns="http://www.w3.org/2000/svg" xmlns:xlink="http://www.w3.org/1999/xlink">
    <!-- Generator: Sketch 63.1 (92452) - https://sketch.com -->
    <title>icon/10-second-rewind</title>
    <desc>Created with Sketch.</desc>
    <g id="icon/10-second-rewind" stroke="none" stroke-width="1" fill="none" fill-rule="evenodd">
        <path d="M12,0 L12,2.2 L12,2.2 C17.5228475,2.2 22,6.63238098 22,12.1 C22,17.567619 17.5228475,22 12,22 C6.4771525,22 2,17.567619 2,12.1 L3.111,12.1 L3.11490085,12.3594653 C3.25353934,17.09956 7.17846647,20.9 12,20.9 C16.9091978,20.9 20.8888889,16.9601058 20.8888889,12.1 C20.8888889,7.2398942 16.9091978,3.3 12,3.3 L12,6.6 L7.55555556,3.3 L12,0 Z M14.036,9.24 C15.564,9.24 16.268,10.336 16.268,12.184 C16.268,14.016 15.564,15.128 14.036,15.128 C12.508,15.128 11.804,14.016 11.804,12.184 C11.804,10.336 12.508,9.24 14.036,9.24 Z M10.664,9.368 L10.664,15 L9.448,15 L9.448,10.64 C8.984,10.864 8.496,11.04 8,11.168 L8,11.168 L8.096,10.16 C8.688,10 9.28,9.72 9.768,9.368 L9.768,9.368 L10.664,9.368 Z M14.036,10.272 C13.276,10.272 13.052,10.936 13.052,12.184 L13.052,12.184 L13.053907,12.3784552 C13.0770637,13.5144155 13.316,14.096 14.036,14.096 C14.788,14.096 15.02,13.448 15.02,12.184 C15.02,10.936 14.788,10.272 14.036,10.272 Z" id="Shape" fill="#FFFFFF"></path>
    </g>
</svg>