<?xml version="1.0" encoding="UTF-8"?>
<svg width="844px" height="92px" viewBox="0 0 844 92" version="1.1" xmlns="http://www.w3.org/2000/svg" xmlns:xlink="http://www.w3.org/1999/xlink">
    <!-- Generator: Sketch 64 (93537) - https://sketch.com -->
    <title>logo</title>
    <desc>Created with Sketch.</desc>
    <g id="Page-1" stroke="none" stroke-width="1" fill="none" fill-rule="evenodd">
        <path d="M793.639728,51.7627212 L805.223592,25.649198 L817.687619,51.7627212 L793.639728,51.7627212 Z M809.271681,9.78899336 L801.452408,9.78899336 L768.204016,82.3413993 L779.557125,82.3413993 L789.337809,61.0778485 L822.210402,61.0778485 L832.55149,82.3413993 L843.901303,82.3413993 L809.271681,9.78899336 Z M707.037653,46.3752765 C707.037653,30.5087113 720.200536,18.7733684 737.892795,18.7733684 C746.869136,18.7733684 755.037837,21.0949945 764.567988,26.275719 L764.567988,15.1827987 C754.025814,11.0547566 745.959305,9.26424226 738.018061,9.26424226 C713.386692,9.26424226 695.585649,25.331167 695.585649,47.3293695 C695.585649,62.4612832 708.277134,83.2668695 737.325799,83.2668695 C749.473362,83.2668695 757.773923,80.6399336 765.378924,76.9507743 L765.378924,65.6225111 C756.626745,70.9050055 747.103186,73.7577434 738.374082,73.7577434 C719.74562,73.7577434 707.037653,62.5471515 707.037653,46.3752765 L707.037653,46.3752765 Z M669.012648,82.3413993 L680.12841,82.3413993 L680.12841,10.2246958 L669.012648,10.2246958 L669.012648,82.3413993 Z M616.051248,41.7097622 L608.911052,41.7097622 L608.911052,19.09776 L616.051248,19.09776 C626.827472,19.09776 631.159059,23.2194414 631.27114,29.9775996 C631.360145,36.0106471 627.97465,41.7097622 616.051248,41.7097622 L616.051248,41.7097622 Z M629.784423,48.0672013 C638.071797,44.9982024 642.719848,38.7679757 642.719848,30.4196626 C642.719848,17.9210454 632.975425,10.2215155 617.300617,10.2215155 L597.7854,10.2215155 L597.7854,82.3413993 L608.911052,82.3413993 L608.911052,51.0344303 L613.568991,51.0344303 C619.235657,51.0344303 623.883707,52.7231748 634.102824,67.521156 L644.325238,82.3413993 L657.596904,82.3413993 C652.259888,75.4560288 650.341331,73.0294524 647.044842,68.0522677 C641.13094,59.071073 636.835614,52.4083241 629.784423,48.0672013 L629.784423,48.0672013 Z M543.472439,50.5987279 L575.135221,50.5987279 L575.135221,41.2995022 L543.472439,41.2995022 L543.472439,19.5175608 L576.26262,19.5175608 L576.26262,10.2215155 L532.35338,10.2215155 L532.35338,82.3413993 L577.281235,82.3413993 L577.281235,73.0294524 L543.472439,73.0294524 L543.472439,50.5987279 Z M474.338462,39.8174779 L448.688478,10.2215155 L438.251792,10.2215155 L438.251792,82.3413993 L449.377444,82.3413993 L449.377444,26.18349 L449.614791,26.18349 L473.438521,54.1066095 L475.261479,54.1066095 L499.06543,26.18349 L499.312666,26.18349 L499.312666,82.3413993 L510.415243,82.3413993 L510.415243,10.2215155 L500.10712,10.2215155 L474.338462,39.8174779 Z M380.24017,51.7627212 L391.820738,25.649198 L404.294654,51.7627212 L380.24017,51.7627212 Z M388.082519,9.78899336 L354.82094,82.3413993 L366.17405,82.3413993 L375.944845,61.0778485 L408.843809,61.0778485 L419.155228,82.3413993 L430.501745,82.3413993 L395.901792,9.78899336 L388.082519,9.78899336 Z M26.2565386,12.9088772 L48.2737917,12.9088772 C60.1378573,12.9088772 65.3858685,18.9705476 65.3858685,18.9705476 C65.3858685,18.9705476 70.1690748,23.0159015 70.1690748,30.0602876 C70.1690748,37.015625 66.9220326,39.9033462 65.9957191,40.8001936 C64.0474938,42.7115597 61.496011,43.8691925 61.496011,43.8691925 C61.496011,43.8691925 67.133008,45.0300055 71.5371179,49.3393252 C76.7224958,54.399198 76.3203241,61.0110619 76.3203241,61.0110619 C76.3203241,61.0110619 76.7224958,67.3239768 71.1349462,72.8036504 C64.2650621,79.5109237 51.791146,79.1769912 51.791146,79.1769912 L26.2565386,79.1769912 L26.2565386,12.9088772 Z M0,92 L100.104496,92 L100.104496,0 L0,0 L0,92 Z M45.1322373,40.3740321 C45.527816,40.3740321 46.0124,40.3485896 46.4310541,40.3326881 C47.6375693,40.2468197 49.2957035,40.0719027 50.9505412,39.6171184 C51.2834866,39.5376106 51.6065426,39.439021 51.9164126,39.3340708 C53.2119329,38.8665653 54.4613025,38.2114215 55.4337668,37.2891316 C56.1985524,36.5512998 56.7128048,35.7275996 57.0358607,34.9198009 C57.4677008,33.9402655 57.6094499,32.9925332 57.6621937,32.3405697 C57.7215305,31.7426715 57.7215305,31.3610343 57.7215305,31.3610343 C57.7215305,31.3610343 57.724827,31.090708 57.6951586,30.6422843 C57.6621937,29.8949115 57.5039622,28.6768529 56.8974082,27.5001383 C56.6040206,26.953125 56.2150349,26.4029314 55.6645211,25.8845409 C55.0250022,25.2548396 54.2272517,24.7714325 53.3767574,24.4088772 C51.7318092,23.7060288 49.8659961,23.4038993 48.2737917,23.318031 C47.5914184,23.2798673 46.9683819,23.2544248 46.4310541,23.2544248 L38.4041023,23.2544248 L38.4041023,40.4026549 L44.2388886,40.4026549 C44.2388886,40.4026549 44.6245779,40.4026549 45.1322373,40.3740321 L45.1322373,40.3740321 Z M57.434736,67.8010232 C58.9280457,67.3239768 60.39828,66.5734237 61.5289759,65.4762168 C61.9707055,65.0500553 62.3267263,64.6048119 62.6036314,64.1691095 C63.5431309,62.715708 63.7903676,61.2464049 63.8365185,60.4131637 C63.8727799,60.0378872 63.8727799,59.831167 63.8727799,59.831167 C63.8727799,59.831167 63.8727799,59.6753319 63.8562974,59.3827434 C63.8562974,59.0360896 63.8167396,58.3682246 63.6255432,57.6526549 C63.3848994,56.78125 62.9596523,55.7858131 62.2080527,54.8667035 C62.0728966,54.7045077 61.9245546,54.5391316 61.7432477,54.3705752 C61.4168952,54.0366427 61.0608744,53.7281527 60.6685921,53.4610066 C60.0158872,52.9839602 59.2609911,52.5737002 58.4533512,52.2302268 C57.3622132,51.7786228 56.1524016,51.4383296 54.8239163,51.1966261 C54.1382465,51.0598728 53.4163153,50.9676438 52.6811981,50.8913164 C52.2295791,50.8595133 51.7746635,50.8181692 51.2933761,50.7990874 C50.8879079,50.7736449 50.4560678,50.7577434 50.0275241,50.7577434 L38.4041023,50.7577434 L38.4041023,68.8314436 L50.4362888,68.8314436 C50.4362888,68.8314436 50.6670431,68.8187223 51.0527323,68.7996405 C51.46809,68.7996405 52.0350862,68.7710177 52.727349,68.7105918 C54.0459448,68.6024613 55.7568228,68.3639381 57.434736,67.8010232 L57.434736,67.8010232 Z M141.600705,12.9088772 L163.627848,12.9088772 C175.465541,12.9088772 180.716849,18.9705476 180.716849,18.9705476 C180.716849,18.9705476 185.513241,23.0159015 185.513241,30.0602876 C185.513241,37.015625 182.249717,39.9033462 181.349775,40.8001936 C179.365288,42.7115597 176.826991,43.8691925 176.826991,43.8691925 C176.826991,43.8691925 182.470581,45.0300055 186.891174,49.3393252 C192.073255,54.399198 191.67438,61.0110619 191.67438,61.0110619 C191.67438,61.0110619 192.073255,67.3239768 186.47252,72.8036504 C179.596043,79.5109237 167.141905,79.1769912 167.141905,79.1769912 L141.600705,79.1769912 L141.600705,12.9088772 Z M115.34087,92 L215.442069,92 L215.442069,0 L115.34087,0 L115.34087,92 Z M160.469811,40.3740321 C160.875279,40.3740321 161.356566,40.3485896 161.78511,40.3326881 C162.991625,40.2468197 164.646463,40.0719027 166.294708,39.6171184 C166.617764,39.5376106 166.937523,39.439021 167.260579,39.3340708 C168.556099,38.8665653 169.815358,38.2114215 170.768044,37.2891316 C171.546015,36.5512998 172.047082,35.7275996 172.383324,34.9198009 C172.795385,33.9402655 172.95032,32.9925332 172.999767,32.3405697 C173.0624,31.7426715 173.0624,31.3610343 173.0624,31.3610343 C173.0624,31.3610343 173.0624,31.090708 173.055807,30.6422843 C172.999767,29.8949115 172.841536,28.6768529 172.248168,27.5001383 C171.958076,26.953125 171.546015,26.4029314 171.01528,25.8845409 C170.362576,25.2548396 169.561529,24.7714325 168.697848,24.4088772 C167.06279,23.7060288 165.190384,23.4038993 163.614662,23.318031 C162.922399,23.2798673 162.289473,23.2544248 161.775221,23.2544248 L153.751565,23.2544248 L153.751565,40.4026549 L159.569869,40.4026549 C159.569869,40.4026549 159.948965,40.4026549 160.469811,40.3740321 L160.469811,40.3740321 Z M172.765716,67.8010232 C174.282102,67.3239768 175.752336,66.5734237 176.873142,65.4762168 C177.295093,65.0500553 177.644521,64.6048119 177.951094,64.1691095 C178.890594,62.715708 179.118052,61.2464049 179.190574,60.4131637 C179.207057,60.0378872 179.207057,59.831167 179.207057,59.831167 C179.207057,59.831167 179.21365,59.6753319 179.207057,59.3827434 C179.190574,59.0360896 179.151016,58.3682246 178.943338,57.6526549 C178.732362,56.78125 178.313708,55.7858131 177.558812,54.8667035 C177.41047,54.7045077 177.265425,54.5391316 177.087414,54.3705752 C176.767655,54.0366427 176.408337,53.7281527 176.016055,53.4610066 C175.346868,52.9839602 174.588675,52.5737002 173.784332,52.2302268 C172.699787,51.7786228 171.506457,51.4383296 170.171379,51.1966261 C169.479116,51.0598728 168.773668,50.9676438 168.035254,50.8913164 C167.583635,50.8595133 167.128719,50.8181692 166.634246,50.7990874 C166.235371,50.7736449 165.796938,50.7577434 165.371691,50.7577434 L153.751565,50.7577434 L153.751565,68.8314436 L165.767269,68.8314436 C165.767269,68.8314436 166.011209,68.8187223 166.410085,68.7996405 C166.818849,68.7996405 167.395735,68.7710177 168.081405,68.7105918 C169.393408,68.6024613 171.100989,68.3639381 172.765716,67.8010232 L172.765716,67.8010232 Z M245.848888,44.7660398 C245.895039,43.8819137 245.98734,43.0136892 246.115903,42.1645465 C246.471924,39.4485619 247.160891,36.9011338 248.087204,34.5222622 C248.835507,32.6204369 249.745338,30.8299226 250.793622,29.1666206 C250.994708,28.8772124 251.152939,28.6005254 251.347432,28.3174779 C251.624337,27.9103982 251.907835,27.5128595 252.184741,27.1248617 C252.573726,26.5842091 252.985788,26.0880808 253.407738,25.5824115 C253.790131,25.1244469 254.18571,24.6760232 254.601067,24.2371405 C254.98346,23.8046184 255.412004,23.3784569 255.830658,22.9872788 C256.311945,22.5102323 256.839384,22.0331858 257.373415,21.5688606 C257.940411,21.0822732 258.543669,20.5925055 259.186484,20.1122788 C259.473279,19.8896571 259.789742,19.6829369 260.106205,19.4412334 C260.462226,19.1868086 260.838025,18.9419248 261.213825,18.7002212 C261.87642,18.2676991 262.565386,17.8606195 263.284021,17.4567201 C264.022434,17.0369192 264.783923,16.6552821 265.575081,16.2704646 C266.517877,15.8125 267.539789,15.3895188 268.578183,14.9856195 C270.605524,14.2064436 272.804282,13.5608407 275.184348,13.0678927 C275.573333,12.9979259 275.94254,12.9088772 276.354601,12.8420907 C276.631506,12.7943861 276.915005,12.7562223 277.214985,12.6989768 L277.874283,12.5940265 L278.418204,12.5240597 L278.902788,12.4636338 C279.476377,12.3873064 280.059855,12.3332412 280.673003,12.269635 C281.055395,12.2314712 281.454271,12.1996681 281.876221,12.1710454 C282.598152,12.1328816 283.349752,12.0947179 284.107945,12.0724558 C284.516709,12.0724558 284.744167,12.0597345 285.156228,12.0597345 C286.062763,12.0597345 286.992373,12.0947179 287.931872,12.1487832 C288.459311,12.1933075 288.999935,12.2060288 289.533966,12.269635 C290.311938,12.3396018 291.103095,12.4191095 291.864584,12.5240597 L292.395319,12.5940265 C292.87331,12.6798949 293.321633,12.7562223 293.753473,12.8198285 C294.290801,12.9088772 294.821535,13.0074668 295.335788,13.112417 C295.846744,13.204646 296.354403,13.3286781 296.855469,13.4399889 C297.148857,13.5004148 297.462023,13.5735619 297.755411,13.6530697 C298.230105,13.7580199 298.69491,13.8756914 299.14653,13.9997235 C299.532219,14.0855918 299.914612,14.1969027 300.293708,14.3113938 L300.62995,14.4004425 C301.022232,14.4926715 301.388142,14.6262445 301.770535,14.7311947 C302.29138,14.8743086 302.792447,15.0396847 303.273734,15.1891593 C303.682499,15.3290929 304.09456,15.4658462 304.506621,15.5962389 C305.004391,15.7743363 305.472493,15.9365321 305.930705,16.0923673 C306.731752,16.3595133 307.440497,16.6202987 308.043755,16.8556416 C309.398612,17.3581305 310.189769,17.6666206 310.189769,17.6666206 L310.189769,29.9903208 L308.877766,29.284292 C308.396479,29.0330476 307.803111,28.708656 307.091069,28.3524613 C306.698787,28.164823 306.276836,27.9326604 305.802142,27.7100387 C305.258221,27.4492533 304.661556,27.1630254 304.041816,26.8926991 C303.28692,26.5778485 302.502356,26.2311947 301.694716,25.8972622 C301.081569,25.6587389 300.471718,25.4106748 299.835496,25.1944137 C299.835496,25.1944137 299.44651,25.0576604 298.744358,24.8159569 C298.312518,24.6760232 297.785079,24.4979259 297.165339,24.3230088 C296.749982,24.2212389 296.298363,24.0844856 295.800593,23.9604535 C295.05229,23.7664546 294.218278,23.5629148 293.285371,23.3784569 C292.6953,23.2798673 292.052484,23.1558352 291.406372,23.0572456 C290.63829,22.9554757 289.866912,22.8473451 289.052679,22.7837389 C288.640618,22.7392146 288.21537,22.7074115 287.763751,22.6756084 C287.137418,22.6469856 286.481417,22.6247235 285.795747,22.6088219 L284.915584,22.6088219 C284.022236,22.6088219 283.095922,22.6469856 282.166312,22.7233131 C281.678432,22.7646571 281.193848,22.815542 280.689485,22.8823285 C280.201605,22.9363938 279.697242,23.0159015 279.209361,23.1081305 C278.761039,23.1812777 278.316013,23.2798673 277.844615,23.3784569 C277.396292,23.4706858 276.954562,23.5819967 276.486461,23.7060288 C276.024952,23.8364215 275.550258,23.9763551 275.055784,24.1512721 C274.623944,24.2848451 274.195401,24.4375 273.756968,24.5965155 C273.325128,24.7714325 272.889991,24.930448 272.46804,25.1308075 C269.712175,26.3488662 267.07828,28.072594 264.717994,30.3687777 C264.556466,30.5277931 264.414716,30.6868086 264.266374,30.8458241 C263.949911,31.173396 263.666413,31.4946073 263.405991,31.8126383 C263.191719,32.0670631 262.974151,32.3214878 262.79614,32.5600111 C262.245626,33.2724004 261.761042,33.9879701 261.332499,34.7067201 C261.161081,35.0215708 260.959996,35.3459624 260.795171,35.6639934 C260.580899,36.0996958 260.353441,36.5194967 260.172135,36.9424779 C260.036978,37.2668695 259.901822,37.5626383 259.786445,37.8806692 C259.585359,38.3386338 259.440314,38.7902378 259.295268,39.2323009 C259.13374,39.7411504 258.991991,40.2054757 258.8898,40.6570796 C258.71179,41.3853706 258.58982,42.0500553 258.497518,42.6829369 C258.33599,43.7165376 258.27995,44.6197456 258.246985,45.3384956 C258.246985,45.640625 258.233799,45.9014104 258.233799,46.1240321 C258.233799,46.4834071 258.246985,46.9286504 258.260171,47.4311394 C258.27995,47.7682522 258.306322,48.1244469 258.33599,48.5092644 C258.444774,49.5333241 258.622785,50.7386615 258.968916,52.0457688 C259.080997,52.4973728 259.20956,52.9775996 259.357902,53.4451051 C259.562284,54.0334624 259.789742,54.6631637 260.086426,55.3055863 C260.231471,55.6872235 260.399592,56.0434181 260.590789,56.4314159 C260.818246,56.8639381 261.065483,57.315542 261.319313,57.7639657 C261.50062,58.0501936 261.681927,58.3332412 261.886309,58.6321903 C262.093988,58.9406803 262.301667,59.24599 262.545607,59.5799226 C262.79614,59.8947732 263.043377,60.2064436 263.307096,60.5244746 C263.794976,61.0905697 264.322415,61.6439436 264.905893,62.2195796 L265.057532,62.3658739 L265.182799,62.480365 L265.390477,62.6711836 L265.825614,63.0337389 C266.125595,63.2977046 266.478319,63.5807522 266.821154,63.8606195 C267.183768,64.1309458 267.572753,64.3949115 267.935367,64.6588772 C268.225458,64.8401549 268.541921,65.0500553 268.841902,65.2281527 C269.145179,65.4094303 269.445159,65.6002489 269.741843,65.7751659 C270.354991,66.1059181 270.987916,66.4080476 271.610953,66.6942754 C271.907637,66.8310288 272.204321,66.9582412 272.497709,67.0918142 C272.662533,67.161781 272.85373,67.2253872 273.028443,67.2889934 C273.288866,67.4003042 273.555882,67.5052544 273.826194,67.5974834 C275.652449,68.2589878 277.524855,68.7105918 279.387372,69.0095409 C280.527957,69.1971792 281.668542,69.318031 282.789349,69.3975387 C283.738738,69.4770465 284.671644,69.4802268 285.578179,69.4802268 C286.010019,69.4802268 286.461638,69.4770465 286.939629,69.4579646 C287.707711,69.4293418 288.528537,69.3689159 289.428479,69.2735066 C290.011957,69.2099004 290.598732,69.133573 291.228362,69.0477046 C291.492081,69.0095409 291.7558,68.9777378 292.022816,68.9268529 C294.290801,68.5261338 296.871952,67.8996128 299.670671,66.935979 C301.147499,66.4080476 302.660587,65.7974281 304.252792,65.0595962 C305.14614,64.6588772 306.072454,64.1913717 306.985581,63.6920631 C307.845965,63.25 308.68657,62.7634126 309.553547,62.2259403 L310.463378,61.7234513 C310.588644,61.637583 310.766655,61.5485343 310.908404,61.4467644 L310.908404,73.989906 C310.694132,74.0948562 310.473267,74.206167 310.252403,74.2952157 C309.73815,74.5623617 309.217305,74.7849834 308.736017,75.017146 C308.192097,75.2588496 307.641583,75.4846515 307.160295,75.7009126 C306.332877,76.0348451 305.594463,76.3178927 305.004391,76.5532356 C304.539586,76.7249723 304.157193,76.855365 303.863806,76.9698562 L303.290217,77.1479535 C302.700145,77.3483131 302.106777,77.5423119 301.454072,77.7394912 C300.910151,77.8985066 300.346452,78.0543418 299.786048,78.2038164 C298.994891,78.4137168 298.174065,78.5981748 297.320274,78.7762721 C296.749982,78.9003042 296.189578,79.011615 295.599507,79.1165653 C294.663304,79.2851217 293.674357,79.421875 292.642556,79.555448 C291.983258,79.6349558 291.281106,79.7112832 290.57236,79.7717091 L290.203154,79.8003319 C288.40327,79.9434458 286.461638,80.0356748 284.355181,80.0356748 C284.084869,80.0356748 283.811261,80.0197732 283.540948,80.0197732 C282.950877,79.9943308 282.373991,79.9816095 281.806995,79.956167 C280.623555,79.8989215 279.492859,79.8003319 278.395128,79.6572179 C277.294101,79.5490874 276.235928,79.3678097 275.20083,79.1769912 C273.934978,78.9511892 272.708684,78.661781 271.571395,78.3342091 C270.892318,78.1433905 270.249503,77.9366704 269.61328,77.7267699 C268.960575,77.5168695 268.334242,77.3006084 267.744171,77.0557246 C266.13878,76.4387445 264.668546,75.7295354 263.35984,75.017146 C262.677467,74.6482301 262.061023,74.2856748 261.457765,73.897677 C260.890769,73.5542035 260.353441,73.1821073 259.855672,72.8322732 C259.440314,72.5365044 259.041439,72.2375553 258.652453,71.9354259 C258.246985,71.6173949 257.854702,71.3089049 257.495385,71.0035951 C256.96465,70.5647124 256.493252,70.1131084 256.051523,69.71875 L255.774618,69.4452434 C255.270255,68.9332135 254.732927,68.3862002 254.198896,67.788302 C253.770352,67.3017146 253.331919,66.802406 252.903375,66.2617533 C252.491314,65.7751659 252.099032,65.2504148 251.70675,64.6811394 C251.423252,64.2708794 251.116678,63.8478982 250.819994,63.3803927 C250.463973,62.8333794 250.14751,62.264104 249.791489,61.6439436 C249.224493,60.6326051 248.706944,59.5512998 248.228953,58.4286504 C247.902601,57.725802 247.652068,56.9975111 247.375162,56.237417 C247.167484,55.6331582 246.98288,55.0066372 246.808166,54.3801162 C246.669714,53.8903485 246.544447,53.3974004 246.438959,52.8885509 C246.386216,52.6563883 246.346658,52.4305863 246.300507,52.1857024 C246.162054,51.5941648 246.086235,50.9708241 245.99723,50.3570243 L245.947783,49.9849281 C245.895039,49.4474558 245.862074,48.9322456 245.80933,48.4011338 C245.782958,47.8763827 245.782958,47.3707135 245.782958,46.8427821 C245.782958,46.1494746 245.802737,45.4529867 245.848888,44.7660398 L245.848888,44.7660398 Z M230.694926,92 L330.792828,92 L330.792828,0 L230.694926,0 L230.694926,92 Z" id="logo" fill="#6A8186"></path>
    </g>
</svg>