<?xml version="1.0" encoding="UTF-8"?>
<svg width="72px" height="57px" viewBox="0 0 72 57" version="1.1" xmlns="http://www.w3.org/2000/svg" xmlns:xlink="http://www.w3.org/1999/xlink">
    <!-- Generator: Sketch 63.1 (92452) - https://sketch.com -->
    <title>network</title>
    <desc>Created with Sketch.</desc>
    <g id="Symbols" stroke="none" stroke-width="1" fill="none" fill-rule="evenodd">
        <g id="nav/settings/premiere" transform="translate(-152.000000, -986.000000)">
            <g id="network-branding" transform="translate(0.000000, 954.000000)">
                <g id="logo/network/amc-premiere-rebrand" transform="translate(152.000000, 32.000000)">
                    <g id="premiere" transform="translate(0.000000, 42.471910)">
                        <polygon id="background" fill="#FFC700" fill-rule="nonzero" points="0 13.752809 72 13.752809 72 0 0 0"></polygon>
                        <path d="M63.2331911,3.93064995 L63.2331911,5.28793787 L59.7897547,5.28793787 L59.7897547,6.42611688 L62.9364717,6.42611688 L62.9364717,7.73807192 L59.7897547,7.73807192 L59.7897547,8.97663087 L63.3232191,8.97663087 L63.3232191,10.433759 L58.1175785,10.433759 L58.1175785,3.93064995 L63.2331911,3.93064995 Z M54.0007968,3.93064995 C55.1338707,3.93064995 56.2488324,4.44981933 56.2488324,5.76177437 C56.2488324,6.46281492 55.9158887,7.12769711 55.241478,7.39159922 L55.241478,7.41048792 C55.9249448,7.57401008 56.1225801,8.34844672 56.1763838,8.96745636 C56.194496,9.24053297 56.2216642,10.1973805 56.4464677,10.433759 L54.7918709,10.433759 C54.648572,10.2151898 54.6214038,9.57783116 54.6032917,9.3954203 C54.558544,8.73971262 54.4504039,8.06565592 53.6683859,8.06565592 L52.4005365,8.06565592 L52.4005365,10.433759 L50.7283603,10.433759 L50.7283603,3.93064995 L54.0007968,3.93064995 Z M48.7871656,3.93064995 L48.7871656,5.28793787 L45.3437292,5.28793787 L45.3437292,6.42611688 L48.4904462,6.42611688 L48.4904462,7.73807192 L45.3437292,7.73807192 L45.3437292,8.97663087 L48.8771935,8.97663087 L48.8771935,10.433759 L43.671553,10.433759 L43.671553,3.93064995 L48.7871656,3.93064995 Z M41.6131621,3.93064995 L41.6131621,10.433759 L39.9409859,10.433759 L39.9409859,3.93064995 L41.6131621,3.93064995 Z M33.1904868,3.93064995 L34.2963924,8.26587612 L34.3139718,8.26587612 L35.4198775,3.93064995 L37.8831278,3.93064995 L37.8831278,10.433759 L36.3100356,10.433759 L36.3100356,5.49787226 L36.2919235,5.49787226 L34.9431022,10.433759 L33.6667294,10.433759 L32.3184408,5.49787226 L32.3003286,5.49787226 L32.3003286,10.433759 L30.7272365,10.433759 L30.7272365,3.93064995 L33.1904868,3.93064995 Z M28.776453,3.93064995 L28.776453,5.28793787 L25.3335493,5.28793787 L25.3335493,6.42611688 L28.4802664,6.42611688 L28.4802664,7.73807192 L25.3335493,7.73807192 L25.3335493,8.97663087 L28.866481,8.97663087 L28.866481,10.433759 L23.6613731,10.433759 L23.6613731,3.93064995 L28.776453,3.93064995 Z M19.5445914,3.93064995 C20.6771326,3.93064995 21.7920943,4.44981933 21.7920943,5.76177437 C21.7920943,6.46281492 21.4596833,7.12769711 20.78474,7.39159922 L20.78474,7.41048792 C21.4682067,7.57401008 21.6663747,8.34844672 21.7201784,8.96745636 C21.7377579,9.24053297 21.7649261,10.1973805 21.9897296,10.433759 L20.3356656,10.433759 C20.1918339,10.2151898 20.1646657,9.57783116 20.1465536,9.3954203 C20.1018059,8.73971262 19.9941986,8.06565592 19.2116478,8.06565592 L17.9443311,8.06565592 L17.9443311,10.433759 L16.2721549,10.433759 L16.2721549,3.93064995 L19.5445914,3.93064995 Z M12.2629806,3.93064995 C13.4583815,3.93064995 14.5823993,4.48651737 14.5823993,6.02567647 C14.5823993,7.63769198 13.6746617,8.26587612 12.2629806,8.26587612 L10.8875238,8.26587612 L10.8875238,10.433759 L9.21534758,10.433759 L9.21534758,3.93064995 L12.2629806,3.93064995 Z M12.0115415,5.28793787 L10.8875238,5.28793787 L10.8875238,6.95500044 L12.0115415,6.95500044 C12.5330645,6.95500044 12.9102231,6.73643121 12.9102231,6.14440543 C12.9102231,5.53403063 12.5240084,5.28793787 12.0115415,5.28793787 Z M53.7312456,5.28793787 L52.4005365,5.28793787 L52.4005365,6.75424056 L53.8031615,6.75424056 C54.3065723,6.75424056 54.5761235,6.48116394 54.5761235,5.9895181 C54.5761235,5.5065071 54.1989649,5.28793787 53.7312456,5.28793787 Z M19.2745076,5.28793787 L17.9443311,5.28793787 L17.9443311,6.75424056 L19.3464234,6.75424056 C19.8498342,6.75424056 20.1199181,6.48116394 20.1199181,5.9895181 C20.1199181,5.5065071 19.7422268,5.28793787 19.2745076,5.28793787 Z" id="Combined-Shape" fill="#000000"></path>
                    </g>
                    <g id="logo/network/amc-rebrand" transform="translate(-0.000000, 0.000000)" fill="#FFFFFF">
                        <g id="logo">
                            <path d="M71.91,0 L71.91,40.8539326 L0,40.8539326 L0,0 L71.91,0 Z M71.3032584,0.612808989 L0.606741573,0.612808989 L0.606741573,40.2411236 L71.3032584,40.2411236 L71.3032584,0.612808989 Z M55.819618,11.2048038 C59.9317079,11.2048038 63.1688764,14.1460827 63.9960674,18.3052173 L63.9960674,18.3052173 L60.0524494,18.3052173 C59.3929213,16.274164 57.7917303,14.9039231 55.819618,14.9039231 C53.2191236,14.9039231 51.260764,17.2844818 51.260764,20.4273748 C51.260764,23.5723106 53.2191236,25.9518479 55.819618,25.9518479 C57.8018427,25.9518479 59.4117303,24.566491 60.0629663,22.5127638 L60.0629663,22.5127638 L64.0029438,22.5127638 C63.1891011,26.6923254 59.9448539,29.6489245 55.819618,29.6489245 C50.8819551,29.6489245 47.4340449,25.6760838 47.4340449,20.4273748 C47.4340449,14.9466155 50.902382,11.2048038 55.819618,11.2048038 Z M16.6639551,11.2082764 C22.1703335,11.2082764 24.139561,14.1530311 24.2081347,19.3805054 L24.21,19.6679002 L24.21,29.2338485 L20.4429438,29.2338485 L20.3371685,27.8830133 C19.4143146,28.6455519 17.0358876,29.6489245 14.5891011,29.6489245 C10.7817978,29.6489245 8.31155056,26.7199018 8.31155056,24.2488517 C8.31155056,19.5050973 13.1610337,18.3397389 19.044,18.3397389 L19.2945208,18.339986 C19.3231666,18.340015 19.353446,18.3400458 19.3849056,18.3400778 L20.2495955,18.3409645 L20.250237,18.2736746 C20.2508031,18.2141732 20.2516239,18.1248121 20.2521899,18.0498903 L20.2528315,17.9324252 C20.2528315,17.3055216 19.943191,14.665949 16.7292809,14.665949 C14.1333573,14.665949 13.2912494,15.7974776 12.973094,16.8443898 L12.942,16.9523393 L8.98422472,16.9523393 C8.98422472,15.6129431 10.0173034,11.2082764 16.6639551,11.2082764 Z M32.7672809,11.6339744 C32.7672809,11.6339744 35.727573,22.8982207 36.0206292,24.2872544 L36.0206292,24.2872544 L39.2741798,11.6339744 L45.5256404,11.6339744 L45.5319101,29.2338485 L41.4485393,29.2338485 L41.4485393,16.3334022 L37.9045618,29.2338485 L34.1385169,29.2338485 L30.5971685,16.3334022 L30.5971685,29.2338485 L26.5095506,29.2338485 L26.5095506,11.6339744 Z M18.9512959,21.5388714 C18.3256908,21.5394688 17.3859101,21.5599956 15.963573,21.7050816 C14.4319551,21.8627778 12.3573034,22.37958 12.3573034,24.2118789 C12.3573034,25.5612843 13.6755506,26.1706207 15.5473483,26.1706207 C17.7117978,26.1706207 19.4286742,25.1133209 19.8930337,24.075631 C20.1026196,23.629331 20.2385049,23.1860325 20.2730521,22.7387891 L20.2817528,22.5148065 L20.2817528,21.5398274 L19.4147732,21.5391948 L19.4147732,21.5391948 L18.9512959,21.5388714 Z"></path>
                        </g>
                    </g>
                </g>
            </g>
        </g>
    </g>
</svg>