<?xml version="1.0" encoding="UTF-8"?>
<svg width="71px" height="40px" viewBox="0 0 71 40" version="1.1" xmlns="http://www.w3.org/2000/svg" xmlns:xlink="http://www.w3.org/1999/xlink">
    <!-- Generator: Sketch 63.1 (92452) - https://sketch.com -->
    <title>network</title>
    <desc>Created with Sketch.</desc>
    <g id="Symbols" stroke="none" stroke-width="1" fill="none" fill-rule="evenodd">
        <g id="nav/settings/tve" transform="translate(-153.000000, -1025.000000)" fill="#000000">
            <g id="network-branding" transform="translate(1.000000, 986.000000)">
                <g id="logo/network/amc-rebrand" transform="translate(152.000000, 39.000000)">
                    <g id="logo">
                        <path d="M70.91125,0 L70.91125,40 L0,40 L0,0 L70.91125,0 Z M70.3129354,0.6 L0.598314607,0.6 L0.598314607,39.4 L70.3129354,39.4 L70.3129354,0.6 Z M55.0443455,10.9706 C59.099323,10.9706 62.2915309,13.8504 63.1072331,17.9226 L63.1072331,17.9226 L59.2183876,17.9226 C58.5680197,15.934 56.9890674,14.5924 55.0443455,14.5924 C52.4799691,14.5924 50.548809,16.9232 50.548809,20.0004 C50.548809,23.0796 52.4799691,25.4094 55.0443455,25.4094 C56.9990393,25.4094 58.5865674,24.053 59.2287584,22.0422 L59.2287584,22.0422 L63.114014,22.0422 C62.3114747,26.1344 59.1122865,29.0292 55.0443455,29.0292 C50.1752612,29.0292 46.7752388,25.1394 46.7752388,20.0004 C46.7752388,14.6342 50.1954045,10.9706 55.0443455,10.9706 Z M16.4325112,10.974 C21.8606172,10.974 23.8030051,13.8552972 23.871843,18.9703371 L23.87375,19.2568 L23.87375,28.6228 L20.159014,28.6228 L20.0547079,27.3002 C19.1446713,28.0468 16.7992781,29.0292 14.3864747,29.0292 C10.6320506,29.0292 8.19611236,26.1614 8.19611236,23.742 C8.19611236,19.0974 12.9782416,17.9564 18.7795,17.9564 L19.3423834,17.9569616 C19.3776546,17.9569974 19.4130738,17.9570334 19.4481426,17.9570691 L19.9683511,17.9576 L19.9689837,17.8917166 C19.9699141,17.7946204 19.9715421,17.6163143 19.9715421,17.5576 C19.9715421,16.9438 19.6662022,14.3594 16.4969298,14.3594 C13.9370607,14.3594 13.1066488,15.4672773 12.7929122,16.4923068 L12.76225,16.598 L8.85944382,16.598 C8.85944382,15.2866 9.87817416,10.974 16.4325112,10.974 Z M32.3121798,11.3908 C32.3121798,11.3908 35.2313567,22.4196 35.5203427,23.7796 L35.5203427,23.7796 L38.7287051,11.3908 L44.8933399,11.3908 L44.8995225,28.6228 L40.8728652,28.6228 L40.8728652,15.992 L37.3781096,28.6228 L33.6643708,28.6228 L30.1722079,15.992 L30.1722079,28.6228 L26.1413624,28.6228 L26.1413624,11.3908 Z M19.1451236,21.0889806 L18.6880835,21.088664 C18.0711673,21.0892489 17.1444391,21.1093467 15.7418567,21.2514 C14.2315112,21.4058 12.1856742,21.9118 12.1856742,23.7058 C12.1856742,25.027 13.4856124,25.6236 15.3314129,25.6236 C17.4658006,25.6236 19.1588315,24.5884 19.6167416,23.5724 C19.8234165,23.1354286 19.9574146,22.7013959 19.9914819,22.2635009 L20.0000618,22.0442 L20.0000618,21.0896 L19.255213,21.0890553 C19.2174886,21.0890293 19.1805767,21.0890042 19.1451236,21.0889806 Z"></path>
                    </g>
                </g>
            </g>
        </g>
    </g>
</svg>