<?xml version="1.0" encoding="UTF-8"?>
<svg width="24px" height="24px" viewBox="0 0 24 24" version="1.1" xmlns="http://www.w3.org/2000/svg" xmlns:xlink="http://www.w3.org/1999/xlink">
    <title>icon/play-outline-rebrand</title>
    <g id="icon/play-outline-rebrand" stroke="none" stroke-width="1" fill="none" fill-rule="evenodd">
        <g id="icon">
            <circle id="fill--back" cx="12" cy="12" r="12"></circle>
            <path d="M12,0 C18.6270938,0 24,5.37290592 24,11.9999055 C24,18.6272801 18.6270938,23.999811 12,23.999811 C5.3728125,23.999811 0,18.6272801 0,11.9999055 C0,5.37290592 5.3728125,0 12,0 Z M12,1.6 C6.2564375,1.6 1.6,6.25655513 1.6,12 C1.6,17.7437699 6.2564375,22.4 12,22.4 C17.7434813,22.4 22.4,17.7437699 22.4,12 C22.4,6.25655513 17.7434813,1.6 12,1.6 Z" id="ring" fill="#FFFFFF"></path>
            <polygon fill="#FFFFFF" points="9 7.2 9 16.8 16.9999841 12.0001218"></polygon>
        </g>
    </g>
</svg>