<?xml version="1.0" encoding="UTF-8"?>
<svg width="64px" height="64px" viewBox="0 0 64 64" version="1.1" xmlns="http://www.w3.org/2000/svg" xmlns:xlink="http://www.w3.org/1999/xlink">
    <title>account</title>
    <g id="account" stroke="none" stroke-width="1" fill="none" fill-rule="evenodd">
        <g id="Group-7" fill="#FFFFFF">
            <path d="M32.0635,30.2637 C36.9955,30.2637 40.9945,26.2657 40.9945,21.3337 C40.9945,16.4017 36.9955,12.4037 32.0635,12.4037 C27.1315,12.4037 23.1335,16.4017 23.1335,21.3337 C23.1335,26.2657 27.1315,30.2637 32.0635,30.2637" id="Fill-1"></path>
            <path d="M46.9263,44.0186 C46.9263,35.8196 40.2563,33.1186 32.0573,33.1186 C23.8593,33.1186 17.1893,35.8196 17.1893,44.0186 C17.1893,45.3416 17.1523,46.6266 17.1163,47.8586 C17.0793,49.1226 17.0443,50.3276 17.0543,51.4426 C21.3113,54.5466 26.3283,56.1836 31.6073,56.1836 C37.1403,56.1836 42.5463,54.3086 46.8953,50.8926 C46.9623,49.4356 46.9503,47.8376 46.9373,46.1576 C46.9313,45.4576 46.9263,44.7436 46.9263,44.0186" id="Fill-3"></path>
            <path d="M32,60 C16.561,60 4,47.439 4,32 C4,16.561 16.561,4 32,4 C47.439,4 60,16.561 60,32 C60,47.439 47.439,60 32,60 M32,0 C14.327,0 0,14.327 0,32 C0,49.673 14.327,64 32,64 C49.673,64 64,49.673 64,32 C64,14.327 49.673,0 32,0" id="Fill-5"></path>
        </g>
    </g>
</svg>