<?xml version="1.0" encoding="UTF-8"?>
<svg width="64px" height="64px" viewBox="0 0 64 64" version="1.1" xmlns="http://www.w3.org/2000/svg" xmlns:xlink="http://www.w3.org/1999/xlink">
    <title>play-icon</title>
    <g id="play-icon" stroke="none" stroke-width="1" fill="none" fill-rule="evenodd">
        <g id="Group-5" fill="#FFFFFF">
            <path d="M32,60 C16.561,60 4,47.439 4,32 C4,16.561 16.561,4 32,4 C47.439,4 60,16.561 60,32 C60,47.439 47.439,60 32,60 M32,0 C14.327,0 0,14.327 0,32 C0,49.673 14.327,64 32,64 C49.673,64 64,49.673 64,32 C64,14.327 49.673,0 32,0" id="Fill-1"></path>
            <polygon id="Fill-3" points="24 46 48 32.452 24 18"></polygon>
        </g>
    </g>
</svg>