<?xml version="1.0" encoding="UTF-8"?>
<svg width="50px" height="28px" viewBox="0 0 50 28" version="1.1" xmlns="http://www.w3.org/2000/svg" xmlns:xlink="http://www.w3.org/1999/xlink">
    <title>amc/logo/network/rebrand</title>
    <g id="Header" stroke="none" stroke-width="1" fill="none" fill-rule="evenodd">
        <g id="logo" fill="#FFFFFF">
            <path d="M49.9375,0 L49.9375,28 L0,28 L0,0 L49.9375,0 Z M49.5161517,0.42 L0.421348315,0.42 L0.421348315,27.58 L49.5161517,27.58 L49.5161517,0.42 Z M38.7636236,7.67942 C41.6192416,7.67942 43.8672753,9.69528 44.4417135,12.54582 L44.4417135,12.54582 L41.7030899,12.54582 C41.2450843,11.1538 40.1331461,10.21468 38.7636236,10.21468 C36.9577247,10.21468 35.5977528,11.84624 35.5977528,14.00028 C35.5977528,16.15572 36.9577247,17.78658 38.7636236,17.78658 C40.1401685,17.78658 41.2581461,16.8371 41.7103933,15.42954 L41.7103933,15.42954 L44.4464888,15.42954 C43.8813202,18.29408 41.6283708,20.32044 38.7636236,20.32044 C35.334691,20.32044 32.940309,17.59758 32.940309,14.00028 C32.940309,10.24394 35.3488764,7.67942 38.7636236,7.67942 Z M11.572191,7.6818 C15.3790699,7.6818 16.7513798,9.68214212 16.8104914,13.2351114 L16.8125,13.47976 L16.8125,20.03596 L14.1964888,20.03596 L14.1230337,19.11014 C13.4821629,19.63276 11.8304775,20.32044 10.1313202,20.32044 C7.48735955,20.32044 5.77191011,18.31298 5.77191011,16.6194 C5.77191011,13.36818 9.13960674,12.56948 13.225,12.56948 L13.6480337,12.5699 L13.6480337,12.5699 L14.0622191,12.57032 L14.0628017,12.5098919 C14.0634675,12.4399644 14.0644663,12.32868 14.0644663,12.29032 C14.0644663,11.86066 13.8494382,10.05158 11.6175562,10.05158 C9.83037219,10.05158 9.24020755,10.8137808 9.01488874,11.5260458 L8.9875,11.6186 L6.23904494,11.6186 C6.23904494,10.70062 6.95646067,7.6818 11.572191,7.6818 Z M22.7550562,7.97356 C22.7550562,7.97356 24.8108146,15.69372 25.0143258,16.64572 L25.0143258,16.64572 L27.273736,7.97356 L31.6150281,7.97356 L31.619382,20.03596 L28.7837079,20.03596 L28.7837079,11.1944 L26.3226124,20.03596 L23.7073034,20.03596 L21.2480337,11.1944 L21.2480337,20.03596 L18.4094101,20.03596 L18.4094101,7.97356 Z M14.0845506,14.76272 L13.0133206,14.762755 C12.5824789,14.7664689 11.96772,14.7871967 11.0858146,14.87598 C10.022191,14.98406 8.58146067,15.33826 8.58146067,16.59406 C8.58146067,17.5189 9.49691011,17.93652 10.7967697,17.93652 C12.2998596,17.93652 13.4921348,17.21188 13.8146067,16.50068 C13.9561096,16.2032967 14.0492353,15.9078578 14.0763466,15.6099883 L14.0845506,15.43094 L14.0845506,14.76272 Z"></path>
        </g>
    </g>
</svg>