<?xml version="1.0" encoding="UTF-8"?>
<svg width="24px" height="24px" viewBox="0 0 24 24" version="1.1" xmlns="http://www.w3.org/2000/svg" xmlns:xlink="http://www.w3.org/1999/xlink">
    <!-- Generator: Sketch 63.1 (92452) - https://sketch.com -->
    <title>icon/15-second-forward</title>
    <desc>Created with Sketch.</desc>
    <g id="icon/15-second-forward" stroke="none" stroke-width="1" fill="none" fill-rule="evenodd">
        <path d="M12,6.6 L7.55555556,3.3 L12,0 L12,2.2 L12,2.2 C17.5228475,2.2 22,6.63238098 22,12.1 C22,17.567619 17.5228475,22 12,22 C6.4771525,22 2,17.567619 2,12.1 L3.111,12.1 L3.11490085,12.3594653 C3.25353934,17.09956 7.17846647,20.9 12,20.9 C16.9091978,20.9 20.8888889,16.9601058 20.8888889,12.1 C20.8888889,7.2398942 16.9091978,3.3 12,3.3 L12,6.6 Z" id="Mask" fill="#FFFFFF" fill-rule="nonzero" transform="translate(12.000000, 11.000000) scale(-1, 1) translate(-12.000000, -11.000000) "></path>
        <path d="M10,9 L10,15 L8.63063063,15 L8.63063063,10.3551136 C8.10810811,10.59375 7.55855856,10.78125 7,10.9176136 L7.10810811,9.84375 C7.77477477,9.67329545 8.44144144,9.375 8.99099099,9 L10,9 Z M13.8153242,11.0666667 C15.3477407,11.0666667 16,11.7833333 16,12.975 C16,14.0833333 15.1905697,15 13.5638507,15 C13.0373281,15 12.4557957,14.875 12,14.5666667 L12.1021611,13.5083333 C12.5265226,13.8 13.0058939,13.925 13.5324165,13.925 C14.3811395,13.925 14.7740668,13.5916667 14.7740668,12.9666667 C14.7740668,12.3666667 14.3654224,12.0166667 13.5166994,12.0166667 C13.0294695,12.0166667 12.5422397,12.0916667 12.1257367,12.3 L12.4400786,9 L15.7878193,9 L15.7013752,10.0333333 L13.3752456,10.0333333 L13.2652259,11.1166667 C13.4459725,11.0833333 13.6267191,11.0666667 13.8153242,11.0666667 Z" id="15" fill="#FFFFFF" fill-rule="nonzero"></path>
    </g>
</svg>