<?xml version="1.0" encoding="UTF-8"?>
<svg width="20px" height="20px" viewBox="0 0 20 20" version="1.1" xmlns="http://www.w3.org/2000/svg" xmlns:xlink="http://www.w3.org/1999/xlink">
    <!-- Generator: Sketch 63.1 (92452) - https://sketch.com -->
    <title>icon--right</title>
    <desc>Created with Sketch.</desc>
    <g id="Symbols" stroke="none" stroke-width="1" fill="none" fill-rule="evenodd">
        <g id="hero/show/sm" transform="translate(-339.000000, -19.000000)">
            <g id="icon/more-alt" transform="translate(339.000000, 19.000000)">
                <circle id="base" stroke="#FFFFFF" stroke-width="1" cx="10" cy="10" r="9.5"></circle>
                <path d="M13.8465975,8.75 C14.1618624,8.75 14.4329093,8.86904643 14.6597463,9.10714286 C14.8865832,9.34523929 15,9.64285536 15,10 C15,10.3571446 14.8865832,10.6547607 14.6597463,10.8928571 C14.4329093,11.1309536 14.1618624,11.25 13.8465975,11.25 C13.6928097,11.25 13.5447912,11.2181126 13.4025375,11.1543367 C13.2602838,11.0905609 13.1353331,11.0034019 13.0276817,10.8928571 C12.9200302,10.7823124 12.8335259,10.6526368 12.7681661,10.5038265 C12.7028063,10.3550163 12.6701269,10.1913274 12.6701269,10.0127551 C12.6701269,9.84268622 12.700884,9.68112321 12.7623991,9.52806122 C12.8239142,9.37499923 12.9084962,9.241072 13.0161476,9.12627551 C13.1237991,9.01147902 13.2487498,8.92006837 13.3910035,8.85204082 C13.5332572,8.78401327 13.6851203,8.75 13.8465975,8.75 Z M10.005767,8.75 C10.3210319,8.75 10.5920788,8.86904643 10.8189158,9.10714286 C11.0457528,9.34523929 11.1591696,9.64285536 11.1591696,10 C11.1591696,10.3571446 11.0457528,10.6547607 10.8189158,10.8928571 C10.5920788,11.1309536 10.3210319,11.25 10.005767,11.25 C9.85197924,11.25 9.70396073,11.2181126 9.56170704,11.1543367 C9.41945334,11.0905609 9.29450265,11.0034019 9.18685121,10.8928571 C9.07919977,10.7823124 8.99269544,10.6526368 8.92733564,10.5038265 C8.86197584,10.3550163 8.82929642,10.1913274 8.82929642,10.0127551 C8.82929642,9.84268622 8.86005352,9.68112321 8.92156863,9.52806122 C8.98308374,9.37499923 9.06766574,9.241072 9.17531719,9.12627551 C9.28296863,9.01147902 9.40791932,8.92006837 9.55017301,8.85204082 C9.6924267,8.78401327 9.84428985,8.75 10.005767,8.75 Z M6.16493656,8.75 C6.4802015,8.75 6.75124839,8.86904643 6.97808535,9.10714286 C7.20492232,9.34523929 7.3183391,9.64285536 7.3183391,10 C7.3183391,10.3571446 7.20684464,10.6547607 6.98385236,10.8928571 C6.76086009,11.1309536 6.48789089,11.25 6.16493656,11.25 C6.01114879,11.25 5.86313028,11.2181126 5.72087659,11.1543367 C5.5786229,11.0905609 5.4536722,11.0034019 5.34602076,10.8928571 C5.23836932,10.7823124 5.15378731,10.6526368 5.0922722,10.5038265 C5.03075709,10.3550163 5,10.1913274 5,10.0127551 C5,9.84268622 5.03075709,9.68112321 5.0922722,9.52806122 C5.15378731,9.37499923 5.23836932,9.241072 5.34602076,9.12627551 C5.4536722,9.01147902 5.57670058,8.92006837 5.71510957,8.85204082 C5.85351857,8.78401327 6.0034594,8.75 6.16493656,8.75 Z" id="dots" fill="#FFFFFF" fill-rule="evenodd"></path>
            </g>
        </g>
    </g>
</svg>