<svg xmlns="http://www.w3.org/2000/svg" viewBox="0 0 217.7 42.86"><defs><style>.cls-1{fill:gray;}</style></defs><title>sundance-dk</title><g id="Layer_2" data-name="Layer 2"><g id="Layer_1-2" data-name="Layer 1"><path class="cls-1" d="M214.42,39.82h-.62v-.29h1.56v.29h-.61v2.81h-.33Zm1.3-.29h.4l.59,2.6h0l.57-2.6h.4v3.1h-.31V40.05a7,7,0,0,1-.21,1l-.38,1.63h-.28L216.14,41c-.07-.3-.16-.71-.19-.89v2.57h-.28v-3.1Z"/><path d="M0,29.55,6.82,29C7.39,35,8,36.7,10.13,36.7c1.66,0,2.55-1.2,2.55-3.75,0-3.59-2.55-6-5.4-9.16C4.16,20.3.69,16.59.69,10.34S3.87,0,9.78,0C16.89,0,19,4.44,19.51,12.44l-6.87.61c-.36-6-1.21-6.68-2.74-6.68C8.53,6.37,8,7.67,8,9.61c0,4.15,2.46,6.54,5.17,9.48,3.24,3.48,6.78,6.78,6.78,13.48s-3.52,10.29-9.85,10.29C2,42.86.57,37.29,0,29.55Zm22.06,1.13V.4h7.35V30.24c0,4.95.4,6.48,2.33,6.48s2.34-1.41,2.34-6.37V.4h7V30.52c0,8-2.38,12.34-9.56,12.34S22.06,38.54,22.06,30.68ZM44.59.4h6.88L54.7,13.24c.85,3.59,1.82,7.74,2.51,11.66h.12C57,20.82,57,16.26,57,13.36V.4h6.3V42.46h-6L53.57,29.15a110.07,110.07,0,0,1-2.9-11.42h-.12c.28,2.73.33,9.2.33,11.42V42.46H44.57V.4h0ZM66.94.4h7.22C82.48.4,87,3.51,87,21.43s-4.66,21-12.81,21H66.94Zm8.43,35.85c3.64,0,4.09-3.51,4.09-14.84S79,6.8,75.3,6.8h-1V36.23h1.09v0ZM94,.24h7.63l6.87,42.22H101L99.82,33H95.16L94,42.46H87ZM99.41,28,98,16.66c-.23-1.58-.33-3-.52-4.65h0c-.17,1.7-.29,3.07-.52,4.65L95.54,28ZM110.28.4h6.87l3.24,12.84c.85,3.59,1.82,7.74,2.5,11.66H123c-.28-4.08-.33-8.64-.33-11.54V.4H129V42.46h-6l-3.68-13.31a112.64,112.64,0,0,1-2.91-11.42h-.12c.29,2.73.34,9.2.34,11.42V42.46h-6.31Zm21.49,21C131.77,5.64,135.08,0,142,0c6.71,0,9.38,3.71,9.49,16.15l-6.94.28c-.12-7.56-.73-9.66-2.55-9.66-2.46,0-2.74,4.16-2.74,14.66,0,10.81.33,14.85,2.79,14.85,2,0,2.55-1.65,2.78-9.49l6.95.28c-.4,8.64-1.77,15.79-9.73,15.79-7,0-10.28-5.64-10.28-21.43Zm22.3-21h15.07V6.82h-7.75V17.11h5.41v6h-5.41V36.25h8v6.19H154.07Z"/><path class="cls-1" d="M180.07,6.82h-5.52V.4h18.37V6.82h-5.45V42.46h-7.4ZM193.73.4h7.39l2.34,20.8c.33,3.23.61,7.05.92,10.62h.12c.23-3.59.56-7.39.92-10.62L207.68.4h6.95L208,42.63h-7.63Z"/></g></g></svg>