<?xml version="1.0" encoding="UTF-8"?>
<svg width="24px" height="24px" viewBox="0 0 24 24" version="1.1" xmlns="http://www.w3.org/2000/svg" xmlns:xlink="http://www.w3.org/1999/xlink">
    <!-- Generator: Sketch 63.1 (92452) - https://sketch.com -->
    <title>icon/tumblr</title>
    <desc>Created with Sketch.</desc>
    <defs>
        <path d="M14.1435866,22.4892401 C13.3334954,23.3544073 11.4561702,23.9416413 9.77507599,23.9693617 L9.59051672,23.9693617 C3.94285714,23.9693617 2.716231,19.8171429 2.716231,17.3934347 L2.716231,10.6599392 L0.491306991,10.6599392 C0.367582289,10.6599392 0.248925029,10.6107898 0.161438454,10.5233032 C0.073951878,10.4358166 0.0248024316,10.3171594 0.0248024316,10.1934347 L0.0248024316,7.01361702 C0.0250228751,6.67822122 0.236423934,6.37930859 0.552583587,6.26735562 C3.45191489,5.24607903 4.36121581,2.71586626 4.49580547,0.792583587 C4.53227964,0.278662614 4.80109422,0.0295440729 5.24717325,0.0295440729 L8.56340426,0.0295440729 C8.82104761,0.0295440729 9.02990881,0.238405278 9.02990881,0.496048632 L9.02990881,5.88145897 L12.9118541,5.88145897 C13.1690711,5.8812566 13.3779191,6.08928874 13.3787234,6.34650456 L13.3787234,10.1679027 C13.3786267,10.2916274 13.3293845,10.4102463 13.2418295,10.4976645 C13.1542745,10.5850827 13.0355788,10.6341393 12.9118541,10.6340426 L9.01203647,10.6340426 L9.01203647,16.8612766 C9.01203647,18.424924 10.0424316,18.8564134 10.6789058,18.8564134 C11.2894833,18.8418237 11.8905775,18.6558055 12.1918541,18.5347112 C12.4154407,18.4449848 12.6120365,18.3855319 12.7878419,18.4296657 C12.9516109,18.4705167 13.0592097,18.5865046 13.1317933,18.7980547 L14.1607295,21.8035258 C14.2442553,22.0442553 14.3161094,22.3050456 14.1435866,22.4892401 Z" id="path-1"></path>
    </defs>
    <g id="icon/tumblr" stroke="none" stroke-width="1" fill="none" fill-rule="evenodd">
        <g id="icon" transform="translate(5.000000, 0.000000)">
            <mask id="mask-2" fill="white">
                <use xlink:href="#path-1"></use>
            </mask>
            <use id="Mask" fill="#FFFFFF" fill-rule="nonzero" xlink:href="#path-1"></use>
            <rect id="tint" fill="#FFFFFF" mask="url(#mask-2)" x="-5" y="0" width="24" height="24"></rect>
        </g>
    </g>
</svg>