<?xml version="1.0" encoding="UTF-8"?>
<svg width="422px" height="173px" viewBox="0 0 422 173" version="1.1" xmlns="http://www.w3.org/2000/svg" xmlns:xlink="http://www.w3.org/1999/xlink">
    <!-- Generator: Sketch 64 (93537) - https://sketch.com -->
    <title>Group 38</title>
    <desc>Created with Sketch.</desc>
    <defs>
        <polygon id="path-1" points="0 173 421.425 173 421.425 0.092 0 0.092"></polygon>
    </defs>
    <g id="Page-1" stroke="none" stroke-width="1" fill="none" fill-rule="evenodd">
        <g id="Group-38" transform="translate(0.000000, -1.000000)">
            <path d="M0,130.784 L421.425,130.784 L421.425,1 L0,1 L0,130.784 Z M7.459,123.325 L413.966,123.325 L413.966,8.459 L7.459,8.459 L7.459,123.325 Z" id="Fill-1" fill="#FFFFFF"></path>
            <polygon id="Fill-2" fill="#FFFFFF" points="52.8856 41.7073 66.0146 41.7073 76.6546 76.8703 87.2946 41.7073 100.1216 41.7073 83.2196 91.0563 69.7886 91.0563"></polygon>
            <g id="Group-37" transform="translate(0.000000, 0.908000)">
                <path d="M135.7406,65.5488 L135.7406,61.4738 C135.7406,54.6838 132.7976,51.1368 126.0826,51.1368 C119.4416,51.1368 116.4236,54.6838 116.4236,61.4738 L116.4236,65.5488 L135.7406,65.5488 Z M104.5016,61.4738 C104.5016,48.0438 112.1226,39.8188 126.1576,39.8188 C140.2686,39.8188 147.9656,48.0438 147.9656,61.4738 L147.9656,90.1488 L135.7406,90.1488 L135.7406,76.1138 L116.4236,76.1138 L116.4236,90.1488 L104.5016,90.1488 L104.5016,61.4738 Z" id="Fill-3" fill="#FFFFFF"></path>
                <path d="M157.3241,60.5698 C157.3241,47.8168 164.8691,39.8188 178.4521,39.8188 C192.0341,39.8188 199.5801,47.8168 199.5801,60.5698 L199.5801,90.1488 L187.3561,90.1488 L187.3561,60.5698 C187.3561,54.5328 184.4881,51.1368 178.4521,51.1368 C172.4151,51.1368 169.5481,54.5328 169.5481,60.5698 L169.5481,90.1488 L157.3241,90.1488 L157.3241,60.5698 Z" id="Fill-5" fill="#FFFFFF"></path>
                <mask id="mask-2" fill="white">
                    <use xlink:href="#path-1"></use>
                </mask>
                <g id="Clip-8"></g>
                <polygon id="Fill-7" fill="#FFFFFF" mask="url(#mask-2)" points="210.071 90.148 222.295 90.148 222.295 40.799 210.071 40.799"></polygon>
                <polygon id="Fill-9" fill="#FFFFFF" mask="url(#mask-2)" points="233.9164 40.7993 246.1404 40.7993 246.1404 78.8303 269.4574 78.8303 269.4574 90.1483 233.9164 90.1483"></polygon>
                <polygon id="Fill-10" fill="#FFFFFF" mask="url(#mask-2)" points="277.9862 40.7993 290.2102 40.7993 290.2102 78.8303 313.5262 78.8303 313.5262 90.1483 277.9862 90.1483"></polygon>
                <path d="M352.088,65.5488 L352.088,61.4738 C352.088,54.6838 349.145,51.1368 342.429,51.1368 C335.789,51.1368 332.771,54.6838 332.771,61.4738 L332.771,65.5488 L352.088,65.5488 Z M320.848,61.4738 C320.848,48.0438 328.47,39.8188 342.504,39.8188 C356.615,39.8188 364.312,48.0438 364.312,61.4738 L364.312,90.1488 L352.088,90.1488 L352.088,76.1138 L332.771,76.1138 L332.771,90.1488 L320.848,90.1488 L320.848,61.4738 Z" id="Fill-11" fill="#FFFFFF" mask="url(#mask-2)"></path>
                <path d="M4.5842,165.2642 L8.0452,165.2642 C12.0572,165.2642 14.2732,162.8122 14.2732,158.3422 C14.2732,153.8842 12.0442,151.4192 8.0452,151.4192 L4.5842,151.4192 L4.5842,165.2642 Z M8.3212,148.8882 C13.9452,148.8882 17.2762,152.3492 17.2762,158.3152 C17.2762,164.2942 13.9592,167.8082 8.3212,167.8082 L1.6472,167.8082 L1.6472,148.8882 L8.3212,148.8882 Z" id="Fill-12" fill="#FFFFFF" mask="url(#mask-2)"></path>
                <path d="M22.5331,159.6396 L29.4291,159.6396 C29.3641,157.5286 28.0271,156.0476 26.0471,156.0476 C24.0671,156.0476 22.6771,157.5556 22.5331,159.6396 L22.5331,159.6396 Z M32.1041,163.7566 C31.7111,166.2736 29.3251,168.0706 26.1651,168.0706 C22.1141,168.0706 19.6621,165.3296 19.6621,160.9766 C19.6621,156.6506 22.1531,153.7656 26.0471,153.7656 C29.8751,153.7656 32.2621,156.4666 32.2621,160.6496 L32.2621,161.6196 L22.5201,161.6196 L22.5201,161.7896 C22.5201,164.1896 23.9621,165.7756 26.2311,165.7756 C27.8431,165.7756 29.0361,164.9626 29.4171,163.7566 L32.1041,163.7566 Z" id="Fill-13" fill="#FFFFFF" mask="url(#mask-2)"></path>
                <path d="M40.0621,153.7656 C43.2741,153.7656 45.3591,155.5486 45.4511,158.0926 L42.7891,158.0926 C42.6321,156.7556 41.6481,155.9156 40.0621,155.9156 C38.5281,155.9156 37.5051,156.6636 37.5051,157.7646 C37.5051,158.6296 38.1351,159.2206 39.6291,159.5606 L41.8711,160.0726 C44.6901,160.7276 45.7651,161.8286 45.7651,163.8226 C45.7651,166.3396 43.4181,168.0706 40.1671,168.0706 C36.7191,168.0706 34.6471,166.3786 34.3851,163.7566 L37.1911,163.7566 C37.4531,165.1986 38.4361,165.9066 40.1671,165.9066 C41.8711,165.9066 42.9201,165.1986 42.9201,164.0716 C42.9201,163.1796 42.4091,162.6556 40.9011,162.3146 L38.6591,161.7896 C36.0371,161.1866 34.7391,159.9286 34.7391,157.9216 C34.7391,155.4566 36.8891,153.7656 40.0621,153.7656" id="Fill-14" fill="#FFFFFF" mask="url(#mask-2)"></path>
                <path d="M48.584,167.808 L51.416,167.808 L51.416,154.015 L48.584,154.015 L48.584,167.808 Z M48.361,150.16 C48.361,149.255 49.095,148.534 50,148.534 C50.905,148.534 51.626,149.255 51.626,150.16 C51.626,151.052 50.905,151.786 50,151.786 C49.095,151.786 48.361,151.052 48.361,150.16 L48.361,150.16 Z" id="Fill-15" fill="#FFFFFF" mask="url(#mask-2)"></path>
                <path d="M64.3954,160.8721 C64.3954,158.0401 62.9404,156.1781 60.7244,156.1781 C58.5484,156.1781 57.1324,158.0011 57.1324,160.8721 C57.1324,163.7561 58.5484,165.5141 60.7244,165.5141 C62.9404,165.5141 64.3954,163.7171 64.3954,160.8721 M54.7324,168.8831 L57.5774,168.8831 C57.9844,170.0371 59.2424,170.7971 60.8554,170.7971 C63.0714,170.7971 64.3824,169.5391 64.3824,167.6501 L64.3824,165.3821 L64.3304,165.3821 C63.5564,166.8771 61.9304,167.8601 59.9644,167.8601 C56.5024,167.8601 54.2344,165.1601 54.2344,160.8591 C54.2344,156.5191 56.4894,153.7921 60.0294,153.7921 C61.9834,153.7921 63.5824,154.7751 64.4214,156.3751 L64.4744,156.3751 L64.4744,154.0151 L67.2274,154.0151 L67.2274,167.5591 C67.2274,170.8501 64.6844,173.0001 60.7504,173.0001 C57.4994,173.0001 55.0864,171.2691 54.7324,168.8831" id="Fill-16" fill="#FFFFFF" mask="url(#mask-2)"></path>
                <path d="M70.5575,154.0151 L73.2585,154.0151 L73.2585,156.3221 L73.3235,156.3221 C74.0715,154.7491 75.5395,153.7791 77.6635,153.7791 C80.7055,153.7791 82.4495,155.7191 82.4495,158.8791 L82.4495,167.8081 L79.6045,167.8081 L79.6045,159.4301 C79.6045,157.3581 78.6335,156.2181 76.6675,156.2181 C74.6745,156.2181 73.3895,157.6341 73.3895,159.7711 L73.3895,167.8081 L70.5575,167.8081 L70.5575,154.0151 Z" id="Fill-17" fill="#FFFFFF" mask="url(#mask-2)"></path>
                <path d="M94.0387,162.6157 C94.3007,164.4907 96.0837,165.6177 98.6007,165.6177 C101.0007,165.6177 102.7177,164.3857 102.7177,162.6947 C102.7177,161.2257 101.7217,160.3077 99.1917,159.7577 L97.1327,159.3247 C93.3437,158.5257 91.6257,156.7677 91.6257,154.0407 C91.6257,150.8027 94.4717,148.5737 98.4967,148.5737 C102.5087,148.5737 105.2487,150.8417 105.3407,154.1457 L102.4957,154.1457 C102.3117,152.2447 100.7517,151.0777 98.4567,151.0777 C96.2417,151.0777 94.6157,152.1537 94.6157,153.8837 C94.6157,155.2607 95.5857,156.1787 98.0377,156.7027 L100.1087,157.1357 C104.0687,157.9747 105.6947,159.5607 105.6947,162.3147 C105.6947,165.8807 102.8887,168.1227 98.4837,168.1227 C94.2087,168.1227 91.3637,165.9857 91.1807,162.6157 L94.0387,162.6157 Z" id="Fill-18" fill="#FFFFFF" mask="url(#mask-2)"></path>
                <path d="M108.7487,172.8818 L108.7487,170.5878 C108.9587,170.6398 109.4307,170.6398 109.6667,170.6398 C110.9777,170.6398 111.6857,170.0898 112.1187,168.6738 C112.1187,168.6468 112.3677,167.8338 112.3677,167.8208 L107.3847,154.0148 L110.4537,154.0148 L113.9407,165.2378 L113.9937,165.2378 L117.4807,154.0148 L120.4697,154.0148 L115.3047,168.5288 C114.1247,171.8728 112.7607,172.9478 109.9027,172.9478 C109.6667,172.9478 108.9587,172.9218 108.7487,172.8818" id="Fill-19" fill="#FFFFFF" mask="url(#mask-2)"></path>
                <path d="M127.7465,153.7656 C130.9585,153.7656 133.0435,155.5486 133.1355,158.0926 L130.4735,158.0926 C130.3165,156.7556 129.3325,155.9156 127.7465,155.9156 C126.2125,155.9156 125.1895,156.6636 125.1895,157.7646 C125.1895,158.6296 125.8195,159.2206 127.3135,159.5606 L129.5555,160.0726 C132.3745,160.7276 133.4495,161.8286 133.4495,163.8226 C133.4495,166.3396 131.1025,168.0706 127.8515,168.0706 C124.4035,168.0706 122.3315,166.3786 122.0695,163.7566 L124.8755,163.7566 C125.1375,165.1986 126.1205,165.9066 127.8515,165.9066 C129.5555,165.9066 130.6045,165.1986 130.6045,164.0716 C130.6045,163.1796 130.0935,162.6556 128.5855,162.3146 L126.3435,161.7896 C123.7215,161.1866 122.4235,159.9286 122.4235,157.9216 C122.4235,155.4566 124.5735,153.7656 127.7465,153.7656" id="Fill-20" fill="#FFFFFF" mask="url(#mask-2)"></path>
                <path d="M139.8478,150.75 L139.8478,154.015 L142.4698,154.015 L142.4698,156.257 L139.8478,156.257 L139.8478,163.861 C139.8478,165.055 140.3718,165.592 141.5258,165.592 C141.8148,165.592 142.2738,165.566 142.4568,165.526 L142.4568,167.769 C142.1418,167.847 141.5128,167.9 140.8838,167.9 C138.0908,167.9 137.0028,166.838 137.0028,164.176 L137.0028,156.257 L134.9968,156.257 L134.9968,154.015 L137.0028,154.015 L137.0028,150.75 L139.8478,150.75 Z" id="Fill-21" fill="#FFFFFF" mask="url(#mask-2)"></path>
                <path d="M147.255,159.6396 L154.151,159.6396 C154.086,157.5286 152.749,156.0476 150.769,156.0476 C148.789,156.0476 147.399,157.5556 147.255,159.6396 L147.255,159.6396 Z M156.826,163.7566 C156.433,166.2736 154.047,168.0706 150.887,168.0706 C146.835,168.0706 144.384,165.3296 144.384,160.9766 C144.384,156.6506 146.875,153.7656 150.769,153.7656 C154.597,153.7656 156.984,156.4666 156.984,160.6496 L156.984,161.6196 L147.242,161.6196 L147.242,161.7896 C147.242,164.1896 148.684,165.7756 150.952,165.7756 C152.565,165.7756 153.758,164.9626 154.138,163.7566 L156.826,163.7566 Z" id="Fill-22" fill="#FFFFFF" mask="url(#mask-2)"></path>
                <path d="M159.7103,154.0151 L162.4113,154.0151 L162.4113,156.3351 L162.4763,156.3351 C163.0933,154.8021 164.5353,153.7791 166.3973,153.7791 C168.3113,153.7791 169.7013,154.7621 170.2513,156.4801 L170.3173,156.4801 C171.0253,154.8021 172.6513,153.7791 174.6173,153.7791 C177.3453,153.7791 179.1283,155.5881 179.1283,158.3281 L179.1283,167.8081 L176.2833,167.8081 L176.2833,159.0101 C176.2833,157.2271 175.3253,156.2041 173.6473,156.2041 C171.9693,156.2041 170.8023,157.4501 170.8023,159.1941 L170.8023,167.8081 L168.0233,167.8081 L168.0233,158.8001 C168.0233,157.2141 167.0133,156.2041 165.4133,156.2041 C163.7353,156.2041 162.5423,157.5151 162.5423,159.2861 L162.5423,167.8081 L159.7103,167.8081 L159.7103,154.0151 Z" id="Fill-23" fill="#FFFFFF" mask="url(#mask-2)"></path>
                <path d="M191.2941,160.9116 C191.2941,163.7826 192.8021,165.6446 194.9521,165.6446 C197.1811,165.6446 198.5581,163.8356 198.5581,160.9116 C198.5581,158.0136 197.1811,156.1786 194.9521,156.1786 C192.8021,156.1786 191.2941,158.0666 191.2941,160.9116 M191.2811,165.4606 L191.2291,165.4606 L191.2291,167.8076 L188.4751,167.8076 L188.4751,148.8886 L191.3071,148.8886 L191.3071,156.3616 L191.3731,156.3616 C192.1991,154.7626 193.7721,153.7916 195.7261,153.7916 C199.2001,153.7916 201.4681,156.5456 201.4681,160.9116 C201.4681,165.2906 199.2131,168.0436 195.7131,168.0436 C193.6931,168.0436 192.1331,167.0606 191.2811,165.4606" id="Fill-24" fill="#FFFFFF" mask="url(#mask-2)"></path>
                <path d="M204.0639,172.8818 L204.0639,170.5878 C204.2739,170.6398 204.7459,170.6398 204.9819,170.6398 C206.2929,170.6398 207.0009,170.0898 207.4339,168.6738 C207.4339,168.6468 207.6829,167.8338 207.6829,167.8208 L202.6999,154.0148 L205.7679,154.0148 L209.2559,165.2378 L209.3079,165.2378 L212.7959,154.0148 L215.7849,154.0148 L210.6199,168.5288 C209.4389,171.8728 208.0759,172.9478 205.2179,172.9478 C204.9819,172.9478 204.2739,172.9218 204.0639,172.8818" id="Fill-25" fill="#FFFFFF" mask="url(#mask-2)"></path>
                <path d="M229.7477,160.1904 L234.0607,160.1904 L231.9637,152.9004 L231.8587,152.9004 L229.7477,160.1904 Z M235.0057,163.6514 L228.8167,163.6514 L227.6107,167.8084 L222.7067,167.8084 L229.0657,148.8884 L234.9527,148.8884 L241.3117,167.8084 L236.1987,167.8084 L235.0057,163.6514 Z" id="Fill-26" fill="#FFFFFF" mask="url(#mask-2)"></path>
                <polygon id="Fill-27" fill="#FFFFFF" mask="url(#mask-2)" points="260.1916 167.8081 260.1916 155.9951 260.0996 155.9951 255.4196 167.8081 252.6656 167.8081 247.9986 155.9951 247.8936 155.9951 247.8936 167.8081 243.6586 167.8081 243.6586 148.8881 249.2176 148.8881 253.9896 161.2521 254.0946 161.2521 258.8676 148.8881 264.4266 148.8881 264.4266 167.8081"></polygon>
                <path d="M267.2975,158.3418 C267.2975,152.1658 270.8505,148.5608 276.4885,148.5608 C281.2745,148.5608 284.9055,151.6418 285.0505,156.1128 L280.4215,156.1128 C280.1855,153.8838 278.5995,152.4158 276.4885,152.4158 C273.8665,152.4158 272.2015,154.6568 272.2015,158.3288 C272.2015,162.0388 273.8535,164.2808 276.5015,164.2808 C278.6125,164.2808 280.1465,162.8908 280.4485,160.6748 L285.0765,160.6748 C284.8535,165.1728 281.3655,168.1358 276.4885,168.1358 C270.8245,168.1358 267.2975,164.5298 267.2975,158.3418" id="Fill-28" fill="#FFFFFF" mask="url(#mask-2)"></path>
                <polygon id="Fill-29" fill="#FFFFFF" mask="url(#mask-2)" points="293.6107 167.8081 293.6107 148.8881 297.4527 148.8881 305.4767 159.8891 305.5807 159.8891 305.5807 148.8881 310.1437 148.8881 310.1437 167.8081 306.3417 167.8081 298.2777 156.7031 298.1737 156.7031 298.1737 167.8081"></polygon>
                <path d="M317.3676,159.0366 L322.5596,159.0366 C322.4806,157.5156 321.4456,156.4936 319.9766,156.4936 C318.5476,156.4936 317.4856,157.5556 317.3676,159.0366 L317.3676,159.0366 Z M326.8596,163.2976 C326.4146,166.2476 323.7926,168.1486 320.0556,168.1486 C315.5056,168.1486 312.7916,165.3556 312.7916,160.7416 C312.7916,156.1256 315.5316,153.1886 319.8986,153.1886 C324.1986,153.1886 326.9386,156.0076 326.9386,160.3736 L326.9386,161.6846 L317.3016,161.6846 L317.3016,161.9736 C317.3016,163.6776 318.4426,164.8576 320.1206,164.8576 C321.3666,164.8576 322.3366,164.2676 322.6646,163.2976 L326.8596,163.2976 Z" id="Fill-30" fill="#FFFFFF" mask="url(#mask-2)"></path>
                <path d="M335.0937,150.3306 L335.0937,153.5296 L337.6637,153.5296 L337.6637,156.9516 L335.0937,156.9516 L335.0937,162.9436 C335.0937,163.9276 335.6177,164.4256 336.7327,164.4256 C337.0997,164.4256 337.3747,164.4126 337.6507,164.3596 L337.6507,167.6636 C337.2047,167.7556 336.5227,167.8336 335.6177,167.8336 C331.9077,167.8336 330.4387,166.6936 330.4387,163.8876 L330.4387,156.9516 L328.4987,156.9516 L328.4987,153.5296 L330.4387,153.5296 L330.4387,150.3306 L335.0937,150.3306 Z" id="Fill-31" fill="#FFFFFF" mask="url(#mask-2)"></path>
                <polygon id="Fill-32" fill="#FFFFFF" mask="url(#mask-2)" points="357.4081 167.8081 352.4001 167.8081 350.1311 158.1971 350.0401 158.1971 347.8111 167.8081 342.8811 167.8081 339.1701 153.5301 343.8641 153.5301 345.6871 163.6121 345.7781 163.6121 347.9551 153.5301 352.4001 153.5301 354.6021 163.6121 354.6941 163.6121 356.5031 153.5301 361.0921 153.5301"></polygon>
                <path d="M372.0924,160.6753 C372.0924,158.1053 371.0824,156.5973 369.4964,156.5973 C367.9234,156.5973 366.9134,158.1053 366.9134,160.6753 C366.9134,163.2843 367.8964,164.7393 369.4964,164.7393 C371.0824,164.7393 372.0924,163.2843 372.0924,160.6753 M362.1934,160.6623 C362.1934,155.9943 365.0644,153.1893 369.4964,153.1893 C373.9544,153.1893 376.7994,155.9813 376.7994,160.6623 C376.7994,165.4343 373.9934,168.1493 369.4964,168.1493 C364.9994,168.1493 362.1934,165.4223 362.1934,160.6623" id="Fill-33" fill="#FFFFFF" mask="url(#mask-2)"></path>
                <path d="M379.1327,153.5298 L383.6557,153.5298 L383.6557,156.2308 L383.7477,156.2308 C384.2727,154.3028 385.4257,153.3198 387.1047,153.3198 C387.5767,153.3198 387.9697,153.3858 388.2847,153.5038 L388.2847,157.4638 C387.8907,157.3058 387.3537,157.2008 386.8027,157.2008 C384.8497,157.2008 383.7877,158.3018 383.7877,160.2958 L383.7877,167.8078 L379.1327,167.8078 L379.1327,153.5298 Z" id="Fill-34" fill="#FFFFFF" mask="url(#mask-2)"></path>
                <polygon id="Fill-35" fill="#FFFFFF" mask="url(#mask-2)" points="399.1398 153.5298 404.3188 153.5298 399.2448 159.6398 404.6198 167.8078 399.2708 167.8078 395.7968 162.4198 394.9578 163.4288 394.9578 167.8078 390.3028 167.8078 390.3028 148.8878 394.9578 148.8878 394.9578 158.9578 395.0358 158.9578"></polygon>
                <path d="M411.9362,153.189 C415.8692,153.189 418.2292,155.103 418.3082,158.04 L414.0602,158.04 C413.9682,157.03 413.2212,156.322 411.9362,156.322 C410.8082,156.322 410.0482,156.821 410.0482,157.594 C410.0482,158.21 410.4672,158.604 411.8312,158.879 L414.3482,159.377 C417.3902,159.967 418.7012,161.147 418.7012,163.285 C418.7012,166.248 416.0272,168.149 412.1062,168.149 C407.8582,168.149 405.4982,166.234 405.2492,163.363 L409.7592,163.363 C409.9562,164.425 410.7562,165.015 412.1062,165.015 C413.3392,165.015 414.0992,164.543 414.0992,163.796 C414.0992,163.153 413.6402,162.813 412.3422,162.55 L409.8382,162.052 C407.0322,161.502 405.5902,160.033 405.5902,157.856 C405.5902,154.998 408.0292,153.189 411.9362,153.189" id="Fill-36" fill="#FFFFFF" mask="url(#mask-2)"></path>
            </g>
        </g>
    </g>
</svg>