<?xml version="1.0" encoding="UTF-8"?>
<svg width="170px" height="53px" viewBox="0 0 170 53" version="1.1" xmlns="http://www.w3.org/2000/svg" xmlns:xlink="http://www.w3.org/1999/xlink">
    <!-- Generator: Sketch 64 (93537) - https://sketch.com -->
    <title>vanilla-logo_light-bg</title>
    <desc>Created with Sketch.</desc>
    <defs>
        <polygon id="path-1" points="0 53 169.5 53 169.5 0.8 0 0.8"></polygon>
    </defs>
    <g id="Page-1" stroke="none" stroke-width="1" fill="none" fill-rule="evenodd">
        <g id="vanilla-logo_light-bg" transform="translate(0.000000, -1.000000)">
            <path d="M0,53.2 L169.5,53.2 L169.5,1 L0,1 L0,53.2 Z M3,50.201 L166.5,50.201 L166.5,4 L3,4 L3,50.201 Z" id="Fill-1" fill="#000000"></path>
            <polygon id="Fill-2" fill="#000000" points="21.271 17.373 26.552 17.373 30.831 31.516 35.111 17.373 40.27 17.373 33.471 37.222 28.069 37.222"></polygon>
            <g id="Group-12" transform="translate(0.000000, 0.200000)">
                <path d="M54.5959,27.1272 L54.5959,25.4882 C54.5959,22.7572 53.4119,21.3312 50.7109,21.3312 C48.0409,21.3312 46.8259,22.7572 46.8259,25.4882 L46.8259,27.1272 L54.5959,27.1272 Z M42.0309,25.4882 C42.0309,20.0862 45.0969,16.7782 50.7419,16.7782 C56.4169,16.7782 59.5129,20.0862 59.5129,25.4882 L59.5129,37.0222 L54.5959,37.0222 L54.5959,31.3772 L46.8259,31.3772 L46.8259,37.0222 L42.0309,37.0222 L42.0309,25.4882 Z" id="Fill-3" fill="#000000"></path>
                <path d="M63.2769,25.1247 C63.2769,19.9957 66.3119,16.7787 71.7749,16.7787 C77.2379,16.7787 80.2729,19.9957 80.2729,25.1247 L80.2729,37.0217 L75.3559,37.0217 L75.3559,25.1247 C75.3559,22.6967 74.2029,21.3307 71.7749,21.3307 C69.3469,21.3307 68.1939,22.6967 68.1939,25.1247 L68.1939,37.0217 L63.2769,37.0217 L63.2769,25.1247 Z" id="Fill-5" fill="#000000"></path>
                <mask id="mask-2" fill="white">
                    <use xlink:href="#path-1"></use>
                </mask>
                <g id="Clip-8"></g>
                <polygon id="Fill-7" fill="#000000" mask="url(#mask-2)" points="84.492 37.022 89.409 37.022 89.409 17.173 84.492 17.173"></polygon>
                <polygon id="Fill-9" fill="#000000" mask="url(#mask-2)" points="94.0828 17.173 98.9998 17.173 98.9998 32.469 108.3778 32.469 108.3778 37.022 94.0828 37.022"></polygon>
                <polygon id="Fill-10" fill="#000000" mask="url(#mask-2)" points="111.8081 17.173 116.7251 17.173 116.7251 32.469 126.1021 32.469 126.1021 37.022 111.8081 37.022"></polygon>
                <path d="M141.6123,27.1272 L141.6123,25.4882 C141.6123,22.7572 140.4283,21.3312 137.7273,21.3312 C135.0573,21.3312 133.8423,22.7572 133.8423,25.4882 L133.8423,27.1272 L141.6123,27.1272 Z M129.0473,25.4882 C129.0473,20.0862 132.1123,16.7782 137.7583,16.7782 C143.4333,16.7782 146.5293,20.0862 146.5293,25.4882 L146.5293,37.0222 L141.6123,37.0222 L141.6123,31.3772 L133.8423,31.3772 L133.8423,37.0222 L129.0473,37.0222 L129.0473,25.4882 Z" id="Fill-11" fill="#000000" mask="url(#mask-2)"></path>
            </g>
        </g>
    </g>
</svg>